<svg xmlns="http://www.w3.org/2000/svg" xmlns:xlink="http://www.w3.org/1999/xlink" width="200" zoomAndPan="magnify" viewBox="0 0 150 149.999998" height="200" preserveAspectRatio="xMidYMid meet" version="1.2"><defs><clipPath id="d3826cda5f"><path d="M 7.484375 8.023438 L 141.734375 8.023438 L 141.734375 142 L 7.484375 142 Z M 7.484375 8.023438 "/></clipPath></defs><g id="5917e25bf1"><g clip-rule="nonzero" clip-path="url(#d3826cda5f)"><path style=" stroke:none;fill-rule:nonzero;fill:#ff3131;fill-opacity:1;" d="M 74.457031 8.023438 C 37.558594 8.023438 7.484375 38.097656 7.484375 74.996094 C 7.484375 111.890625 37.558594 141.96875 74.457031 141.96875 C 111.355469 141.96875 141.429688 111.890625 141.429688 74.996094 C 141.429688 38.097656 111.355469 8.023438 74.457031 8.023438 Z M 74.457031 138.867188 C 39.265625 138.867188 10.585938 110.1875 10.585938 74.996094 C 10.585938 39.804688 39.265625 11.121094 74.457031 11.121094 C 109.648438 11.121094 138.328125 39.804688 138.328125 74.996094 C 138.328125 110.1875 109.648438 138.867188 74.457031 138.867188 Z M 74.457031 138.867188 "/></g><g style="fill:#ff3131;fill-opacity:1;"><g transform="translate(34.720379, 78.858178)"><path style="stroke:none" d="M 24.25 -45.421875 L 24.25 -8.34375 C 24.25 -5.820312 24.722656 -4.101562 25.671875 -3.1875 C 26.617188 -2.269531 28.210938 -1.8125 30.453125 -1.8125 L 30.453125 0 C 29.304688 -0.0625 27.628906 -0.132812 25.421875 -0.21875 C 23.210938 -0.300781 20.929688 -0.34375 18.578125 -0.34375 C 15.648438 -0.34375 12.820312 -0.300781 10.09375 -0.21875 C 7.375 -0.132812 5.269531 -0.0625 3.78125 0 L 3.78125 -1.8125 C 6.363281 -1.8125 8.359375 -2.28125 9.765625 -3.21875 C 11.171875 -4.164062 11.875 -6.046875 11.875 -8.859375 L 11.875 -29.84375 C 11.875 -32.59375 11.644531 -34.628906 11.1875 -35.953125 C 10.726562 -37.273438 9.863281 -38.132812 8.59375 -38.53125 C 7.332031 -38.9375 5.613281 -39.140625 3.4375 -39.140625 L 3.4375 -41.03125 C 8.375 -41.144531 12.460938 -41.515625 15.703125 -42.140625 C 18.941406 -42.773438 21.789062 -43.867188 24.25 -45.421875 Z M 24.25 -45.421875 "/></g></g><g style="fill:#ff3131;fill-opacity:1;"><g transform="translate(67.660562, 78.858178)"><path style="stroke:none" d="M 1.984375 -44.8125 C 2.492188 -44.695312 3.4375 -44.609375 4.8125 -44.546875 C 6.1875 -44.492188 7.765625 -44.453125 9.546875 -44.421875 C 11.328125 -44.398438 13.078125 -44.390625 14.796875 -44.390625 L 39.046875 -44.390625 L 39.046875 -42.578125 C 37.960938 -39.992188 36.570312 -37.222656 34.875 -34.265625 C 33.1875 -31.316406 31.492188 -28.109375 29.796875 -24.640625 C 28.109375 -21.171875 26.703125 -17.441406 25.578125 -13.453125 C 24.460938 -9.472656 23.90625 -5.160156 23.90625 -0.515625 C 23.90625 -0.171875 23.945312 0.457031 24.03125 1.375 C 24.125 2.289062 24.195312 3.222656 24.25 4.171875 C 24.3125 5.117188 24.34375 5.878906 24.34375 6.453125 C 24.34375 8.054688 23.828125 9.503906 22.796875 10.796875 C 21.765625 12.085938 20.1875 12.734375 18.0625 12.734375 C 15.9375 12.734375 14.359375 12.015625 13.328125 10.578125 C 12.296875 9.140625 11.78125 7.332031 11.78125 5.15625 C 11.78125 2.007812 12.351562 -1.109375 13.5 -4.203125 C 14.644531 -7.304688 16.132812 -10.363281 17.96875 -13.375 C 19.8125 -16.382812 21.789062 -19.320312 23.90625 -22.1875 C 26.03125 -25.0625 28.109375 -27.816406 30.140625 -30.453125 C 32.179688 -33.085938 33.945312 -35.582031 35.4375 -37.9375 L 33.453125 -33.96875 L 9.890625 -33.96875 C 7.535156 -33.96875 6.039062 -33.679688 5.40625 -33.109375 C 4.78125 -32.535156 4.351562 -31.535156 4.125 -30.109375 L 2.328125 -30.109375 C 2.328125 -33.890625 2.296875 -36.882812 2.234375 -39.09375 C 2.179688 -41.300781 2.097656 -43.207031 1.984375 -44.8125 Z M 1.984375 -44.8125 "/></g></g><g style="fill:#ff3131;fill-opacity:1;"><g transform="translate(25.411655, 117.941762)"><path style="stroke:none" d="M 24.28125 -27.890625 L 24.28125 -27.109375 C 23.695312 -26.867188 23.101562 -26.398438 22.5 -25.703125 C 21.894531 -25.015625 21.226562 -23.960938 20.5 -22.546875 L 13.0625 -7.828125 L 11.21875 -7.828125 L 2 -24.859375 C 1.53125 -25.753906 1.101562 -26.34375 0.71875 -26.625 C 0.34375 -26.914062 0.0078125 -27.0625 -0.28125 -27.0625 L -0.28125 -27.890625 C 0.425781 -27.816406 1.15625 -27.765625 1.90625 -27.734375 C 2.65625 -27.710938 3.472656 -27.703125 4.359375 -27.703125 C 5.515625 -27.703125 6.757812 -27.71875 8.09375 -27.75 C 9.4375 -27.789062 10.660156 -27.835938 11.765625 -27.890625 L 11.765625 -27.0625 C 11.109375 -27.0625 10.515625 -27.007812 9.984375 -26.90625 C 9.460938 -26.800781 9.097656 -26.609375 8.890625 -26.328125 C 8.679688 -26.054688 8.734375 -25.617188 9.046875 -25.015625 L 15.265625 -13.0625 L 14.046875 -11.484375 L 18.09375 -19.625 C 19.0625 -21.519531 19.578125 -23.003906 19.640625 -24.078125 C 19.710938 -25.148438 19.453125 -25.914062 18.859375 -26.375 C 18.273438 -26.832031 17.441406 -27.078125 16.359375 -27.109375 L 16.359375 -27.890625 C 17.253906 -27.867188 18.09375 -27.84375 18.875 -27.8125 C 19.664062 -27.789062 20.46875 -27.78125 21.28125 -27.78125 C 21.863281 -27.78125 22.410156 -27.789062 22.921875 -27.8125 C 23.429688 -27.84375 23.882812 -27.867188 24.28125 -27.890625 Z M 15.859375 -14.046875 L 15.859375 -4.171875 C 15.859375 -3.222656 15.925781 -2.515625 16.0625 -2.046875 C 16.207031 -1.578125 16.488281 -1.257812 16.90625 -1.09375 C 17.332031 -0.9375 17.96875 -0.832031 18.8125 -0.78125 L 18.8125 0 C 18.101562 -0.0507812 17.191406 -0.0820312 16.078125 -0.09375 C 14.960938 -0.113281 13.851562 -0.125 12.75 -0.125 C 11.507812 -0.125 10.335938 -0.113281 9.234375 -0.09375 C 8.140625 -0.0820312 7.28125 -0.0507812 6.65625 0 L 6.65625 -0.78125 C 7.488281 -0.832031 8.113281 -0.9375 8.53125 -1.09375 C 8.957031 -1.257812 9.238281 -1.578125 9.375 -2.046875 C 9.519531 -2.515625 9.59375 -3.222656 9.59375 -4.171875 L 9.59375 -12.234375 L 13.015625 -9.796875 Z M 15.859375 -14.046875 "/></g></g><g style="fill:#ff3131;fill-opacity:1;"><g transform="translate(46.739478, 117.941762)"><path style="stroke:none" d="M 11.09375 -20.890625 C 13.40625 -20.890625 15.210938 -20.207031 16.515625 -18.84375 C 17.828125 -17.476562 18.484375 -15.25 18.484375 -12.15625 L 5.546875 -12.15625 L 5.46875 -12.90625 L 13.53125 -12.90625 C 13.5625 -14.1875 13.484375 -15.367188 13.296875 -16.453125 C 13.109375 -17.546875 12.816406 -18.421875 12.421875 -19.078125 C 12.035156 -19.734375 11.515625 -20.0625 10.859375 -20.0625 C 9.941406 -20.0625 9.160156 -19.484375 8.515625 -18.328125 C 7.867188 -17.179688 7.484375 -15.269531 7.359375 -12.59375 L 7.46875 -12.359375 C 7.445312 -12.035156 7.425781 -11.703125 7.40625 -11.359375 C 7.394531 -11.023438 7.390625 -10.675781 7.390625 -10.3125 C 7.390625 -8.5 7.644531 -7.023438 8.15625 -5.890625 C 8.675781 -4.765625 9.328125 -3.945312 10.109375 -3.4375 C 10.898438 -2.925781 11.703125 -2.671875 12.515625 -2.671875 C 13.066406 -2.671875 13.632812 -2.753906 14.21875 -2.921875 C 14.8125 -3.097656 15.410156 -3.414062 16.015625 -3.875 C 16.617188 -4.332031 17.179688 -4.984375 17.703125 -5.828125 L 18.40625 -5.59375 C 18.09375 -4.59375 17.59375 -3.617188 16.90625 -2.671875 C 16.226562 -1.734375 15.363281 -0.960938 14.3125 -0.359375 C 13.269531 0.242188 12.015625 0.546875 10.546875 0.546875 C 8.765625 0.546875 7.191406 0.164062 5.828125 -0.59375 C 4.460938 -1.351562 3.390625 -2.503906 2.609375 -4.046875 C 1.835938 -5.597656 1.453125 -7.566406 1.453125 -9.953125 C 1.453125 -12.390625 1.863281 -14.421875 2.6875 -16.046875 C 3.519531 -17.671875 4.660156 -18.882812 6.109375 -19.6875 C 7.566406 -20.488281 9.226562 -20.890625 11.09375 -20.890625 Z M 11.09375 -20.890625 "/></g></g><g style="fill:#ff3131;fill-opacity:1;"><g transform="translate(66.571978, 117.941762)"><path style="stroke:none" d="M 6.375 0.28125 C 5.195312 0.28125 4.210938 0.0546875 3.421875 -0.390625 C 2.640625 -0.835938 2.0625 -1.4375 1.6875 -2.1875 C 1.320312 -2.9375 1.140625 -3.753906 1.140625 -4.640625 C 1.140625 -5.765625 1.394531 -6.679688 1.90625 -7.390625 C 2.414062 -8.097656 3.078125 -8.675781 3.890625 -9.125 C 4.703125 -9.570312 5.5625 -9.9375 6.46875 -10.21875 C 7.375 -10.507812 8.238281 -10.789062 9.0625 -11.0625 C 9.894531 -11.34375 10.566406 -11.671875 11.078125 -12.046875 C 11.585938 -12.429688 11.84375 -12.925781 11.84375 -13.53125 L 11.84375 -16.609375 C 11.84375 -17.285156 11.726562 -17.890625 11.5 -18.421875 C 11.28125 -18.960938 10.941406 -19.378906 10.484375 -19.671875 C 10.023438 -19.960938 9.425781 -20.109375 8.6875 -20.109375 C 8.164062 -20.109375 7.640625 -20.035156 7.109375 -19.890625 C 6.585938 -19.742188 6.160156 -19.5 5.828125 -19.15625 C 6.554688 -18.894531 7.125 -18.492188 7.53125 -17.953125 C 7.9375 -17.421875 8.140625 -16.8125 8.140625 -16.125 C 8.140625 -15.238281 7.832031 -14.53125 7.21875 -14 C 6.601562 -13.476562 5.875 -13.21875 5.03125 -13.21875 C 4.09375 -13.21875 3.378906 -13.507812 2.890625 -14.09375 C 2.398438 -14.6875 2.15625 -15.40625 2.15625 -16.25 C 2.15625 -17.007812 2.347656 -17.640625 2.734375 -18.140625 C 3.117188 -18.640625 3.648438 -19.109375 4.328125 -19.546875 C 5.054688 -19.972656 5.9375 -20.300781 6.96875 -20.53125 C 8.007812 -20.769531 9.132812 -20.890625 10.34375 -20.890625 C 11.550781 -20.890625 12.640625 -20.765625 13.609375 -20.515625 C 14.578125 -20.265625 15.390625 -19.8125 16.046875 -19.15625 C 16.648438 -18.550781 17.046875 -17.8125 17.234375 -16.9375 C 17.421875 -16.0625 17.515625 -14.953125 17.515625 -13.609375 L 17.515625 -2.90625 C 17.515625 -2.25 17.578125 -1.796875 17.703125 -1.546875 C 17.835938 -1.304688 18.0625 -1.1875 18.375 -1.1875 C 18.613281 -1.1875 18.84375 -1.25 19.0625 -1.375 C 19.28125 -1.507812 19.523438 -1.664062 19.796875 -1.84375 L 20.1875 -1.1875 C 19.632812 -0.707031 18.992188 -0.34375 18.265625 -0.09375 C 17.546875 0.15625 16.742188 0.28125 15.859375 0.28125 C 14.890625 0.28125 14.113281 0.144531 13.53125 -0.125 C 12.957031 -0.40625 12.546875 -0.78125 12.296875 -1.25 C 12.046875 -1.726562 11.921875 -2.28125 11.921875 -2.90625 C 11.296875 -1.914062 10.535156 -1.132812 9.640625 -0.5625 C 8.742188 0 7.65625 0.28125 6.375 0.28125 Z M 9.171875 -2.25 C 9.691406 -2.25 10.164062 -2.367188 10.59375 -2.609375 C 11.03125 -2.859375 11.445312 -3.273438 11.84375 -3.859375 L 11.84375 -11.921875 C 11.601562 -11.523438 11.273438 -11.171875 10.859375 -10.859375 C 10.441406 -10.546875 9.992188 -10.222656 9.515625 -9.890625 C 9.046875 -9.566406 8.59375 -9.207031 8.15625 -8.8125 C 7.726562 -8.414062 7.382812 -7.925781 7.125 -7.34375 C 6.863281 -6.769531 6.734375 -6.078125 6.734375 -5.265625 C 6.734375 -4.242188 6.953125 -3.484375 7.390625 -2.984375 C 7.835938 -2.492188 8.429688 -2.25 9.171875 -2.25 Z M 9.171875 -2.25 "/></g></g><g style="fill:#ff3131;fill-opacity:1;"><g transform="translate(86.955373, 117.941762)"><path style="stroke:none" d="M 14.484375 -20.890625 C 15.316406 -20.890625 15.992188 -20.710938 16.515625 -20.359375 C 17.046875 -20.003906 17.4375 -19.550781 17.6875 -19 C 17.9375 -18.445312 18.0625 -17.867188 18.0625 -17.265625 C 18.0625 -16.296875 17.773438 -15.503906 17.203125 -14.890625 C 16.640625 -14.273438 15.898438 -13.96875 14.984375 -13.96875 C 14.066406 -13.96875 13.351562 -14.195312 12.84375 -14.65625 C 12.332031 -15.113281 12.078125 -15.722656 12.078125 -16.484375 C 12.078125 -17.222656 12.238281 -17.832031 12.5625 -18.3125 C 12.894531 -18.800781 13.3125 -19.210938 13.8125 -19.546875 C 13.445312 -19.660156 13.078125 -19.648438 12.703125 -19.515625 C 12.203125 -19.429688 11.726562 -19.222656 11.28125 -18.890625 C 10.84375 -18.566406 10.460938 -18.160156 10.140625 -17.671875 C 9.828125 -17.191406 9.578125 -16.671875 9.390625 -16.109375 C 9.210938 -15.546875 9.125 -15.003906 9.125 -14.484375 L 9.125 -4.046875 C 9.125 -2.785156 9.429688 -1.929688 10.046875 -1.484375 C 10.671875 -1.046875 11.597656 -0.828125 12.828125 -0.828125 L 12.828125 0 C 12.222656 -0.03125 11.34375 -0.0625 10.1875 -0.09375 C 9.03125 -0.132812 7.828125 -0.15625 6.578125 -0.15625 C 5.523438 -0.15625 4.457031 -0.132812 3.375 -0.09375 C 2.300781 -0.0625 1.488281 -0.03125 0.9375 0 L 0.9375 -0.828125 C 1.863281 -0.828125 2.515625 -1.019531 2.890625 -1.40625 C 3.273438 -1.800781 3.46875 -2.550781 3.46875 -3.65625 L 3.46875 -16.046875 C 3.46875 -17.234375 3.289062 -18.109375 2.9375 -18.671875 C 2.582031 -19.234375 1.914062 -19.515625 0.9375 -19.515625 L 0.9375 -20.34375 C 1.78125 -20.257812 2.597656 -20.21875 3.390625 -20.21875 C 4.484375 -20.21875 5.507812 -20.265625 6.46875 -20.359375 C 7.425781 -20.453125 8.3125 -20.59375 9.125 -20.78125 L 9.125 -17.109375 C 9.4375 -17.816406 9.851562 -18.457031 10.375 -19.03125 C 10.90625 -19.613281 11.507812 -20.066406 12.1875 -20.390625 C 12.875 -20.722656 13.640625 -20.890625 14.484375 -20.890625 Z M 14.484375 -20.890625 "/></g></g><g style="fill:#ff3131;fill-opacity:1;"><g transform="translate(105.331876, 117.941762)"><path style="stroke:none" d="M 8.734375 -20.890625 C 9.835938 -20.890625 10.800781 -20.75 11.625 -20.46875 C 12.445312 -20.195312 13.046875 -19.929688 13.421875 -19.671875 C 14.304688 -19.066406 14.851562 -19.460938 15.0625 -20.859375 L 15.890625 -20.859375 C 15.835938 -20.117188 15.796875 -19.21875 15.765625 -18.15625 C 15.742188 -17.09375 15.734375 -15.679688 15.734375 -13.921875 L 14.90625 -13.921875 C 14.78125 -14.898438 14.53125 -15.859375 14.15625 -16.796875 C 13.789062 -17.742188 13.257812 -18.519531 12.5625 -19.125 C 11.875 -19.726562 10.976562 -20.03125 9.875 -20.03125 C 9.113281 -20.03125 8.46875 -19.8125 7.9375 -19.375 C 7.414062 -18.945312 7.15625 -18.328125 7.15625 -17.515625 C 7.15625 -16.722656 7.390625 -16.03125 7.859375 -15.4375 C 8.335938 -14.851562 8.945312 -14.289062 9.6875 -13.75 C 10.4375 -13.207031 11.222656 -12.640625 12.046875 -12.046875 C 12.910156 -11.390625 13.695312 -10.738281 14.40625 -10.09375 C 15.113281 -9.445312 15.675781 -8.742188 16.09375 -7.984375 C 16.507812 -7.222656 16.71875 -6.316406 16.71875 -5.265625 C 16.71875 -4.085938 16.375 -3.054688 15.6875 -2.171875 C 15.007812 -1.296875 14.113281 -0.625 13 -0.15625 C 11.882812 0.3125 10.644531 0.546875 9.28125 0.546875 C 8.5 0.546875 7.796875 0.46875 7.171875 0.3125 C 6.554688 0.15625 6.03125 -0.0390625 5.59375 -0.28125 C 5.25 -0.4375 4.925781 -0.582031 4.625 -0.71875 C 4.320312 -0.863281 4.039062 -0.992188 3.78125 -1.109375 C 3.519531 -1.179688 3.289062 -1.085938 3.09375 -0.828125 C 2.894531 -0.566406 2.742188 -0.195312 2.640625 0.28125 L 1.8125 0.28125 C 1.863281 -0.5625 1.898438 -1.585938 1.921875 -2.796875 C 1.953125 -4.003906 1.96875 -5.601562 1.96875 -7.59375 L 2.796875 -7.59375 C 2.953125 -6.175781 3.238281 -4.921875 3.65625 -3.828125 C 4.070312 -2.742188 4.640625 -1.894531 5.359375 -1.28125 C 6.085938 -0.664062 7.003906 -0.359375 8.109375 -0.359375 C 8.554688 -0.359375 8.988281 -0.445312 9.40625 -0.625 C 9.820312 -0.8125 10.164062 -1.113281 10.4375 -1.53125 C 10.71875 -1.945312 10.859375 -2.484375 10.859375 -3.140625 C 10.859375 -4.296875 10.484375 -5.253906 9.734375 -6.015625 C 8.984375 -6.773438 8.035156 -7.601562 6.890625 -8.5 C 6.046875 -9.175781 5.25 -9.847656 4.5 -10.515625 C 3.757812 -11.191406 3.148438 -11.925781 2.671875 -12.71875 C 2.203125 -13.519531 1.96875 -14.4375 1.96875 -15.46875 C 1.96875 -16.644531 2.28125 -17.640625 2.90625 -18.453125 C 3.539062 -19.265625 4.375 -19.875 5.40625 -20.28125 C 6.445312 -20.6875 7.554688 -20.890625 8.734375 -20.890625 Z M 8.734375 -20.890625 "/></g></g></g></svg>