<svg width="639" height="574" viewBox="0 0 639 574" fill="none" xmlns="http://www.w3.org/2000/svg">
<circle cx="468.5" cy="403.5" r="170.5" fill="#FAF7EE"/>
<path d="M60.4724 51.2218C60.4724 56.7883 55.9602 61.3006 50.3937 61.3006C44.8272 61.3006 40.315 56.7883 40.315 51.2218C40.315 45.6553 44.8272 41.1431 50.3937 41.1431C55.9602 41.1431 60.4724 45.6553 60.4724 51.2218ZM105.827 51.2218C105.827 56.7883 101.315 61.3006 95.748 61.3006C90.1815 61.3006 85.6693 56.7883 85.6693 51.2218C85.6693 45.6553 90.1815 41.1431 95.748 41.1431C101.315 41.1431 105.827 45.6553 105.827 51.2218ZM151.181 51.2218C151.181 56.7883 146.669 61.3006 141.102 61.3006C135.536 61.3006 131.024 56.7883 131.024 51.2218C131.024 45.6553 135.536 41.1431 141.102 41.1431C146.669 41.1431 151.181 45.6553 151.181 51.2218ZM216.693 359.631C211.128 359.631 206.614 364.157 206.614 369.71C206.614 375.263 211.128 379.789 216.693 379.789C222.246 379.789 226.772 375.263 226.772 369.71C226.772 364.157 222.246 359.631 216.693 359.631ZM201.575 131.852V280.009C201.575 285.575 197.062 290.088 191.496 290.088H50.3937C44.8282 290.088 40.315 285.575 40.315 280.009V131.852C40.315 126.286 44.8282 121.773 50.3937 121.773H191.496C197.062 121.773 201.575 126.286 201.575 131.852ZM181.417 141.93H60.4724V269.93H181.417V141.93ZM231.811 148.986H335.622C341.188 148.986 345.701 144.472 345.701 138.907C345.701 133.341 341.188 128.828 335.622 128.828H231.811C226.246 128.828 221.732 133.341 221.732 138.907C221.732 144.472 226.246 148.986 231.811 148.986ZM231.811 189.301H315.465C321.03 189.301 325.543 184.787 325.543 179.222C325.543 173.656 321.03 169.143 315.465 169.143H231.811C226.246 169.143 221.732 173.656 221.732 179.222C221.732 184.787 226.246 189.301 231.811 189.301ZM50.3937 310.245C44.8282 310.245 40.315 314.759 40.315 320.324C40.315 325.89 44.8282 330.403 50.3937 330.403H120.945C126.51 330.403 131.024 325.89 131.024 320.324C131.024 314.759 126.51 310.245 120.945 310.245H50.3937ZM457.403 291.056C452.596 304.682 452.616 319.77 457.403 333.467C459.298 338.889 465.346 341.943 471.483 339.232L482.913 333.91C496.428 327.641 512 336.611 512 351.982V394.907C512 406.04 502.976 415.064 491.843 415.064H434.888L440.481 427.028C448.605 444.293 439.063 462.95 423.025 468.411C404.483 474.724 385.17 474.789 367.146 468.407C351.183 462.755 341.572 444.293 349.687 427.032L355.284 415.063L298.331 415.064C287.216 415.064 278.173 406.022 278.173 394.907V379.789H262.047C256.483 379.789 251.969 375.263 251.969 369.71C251.969 364.157 256.483 359.631 262.047 359.631H278.173V351.986C278.173 336.612 293.747 327.639 307.256 333.906L318.689 339.229C324.829 341.945 330.876 338.888 332.77 333.469C337.556 319.774 337.573 304.686 332.77 291.052C331.057 286.192 325.055 282.415 318.966 285.163L306.841 290.811C293.747 296.688 278.173 287.975 278.173 272.077V229.616C278.173 218.483 287.198 209.458 298.331 209.458H355.284L349.687 197.491C340.824 176.458 354.389 160.768 367.146 156.114C388.389 148.368 407.262 152.005 413.228 153.318V101.616H20.1575V359.631H170.978C176.339 359.631 181.03 363.663 181.394 369.011C181.793 374.878 177.124 379.789 171.34 379.789H10.0787C4.51225 379.789 0 375.277 0 369.71V31.0643C0 14.3649 13.5368 0.828125 30.2362 0.828125H403.15C419.849 0.828125 433.386 14.3649 433.386 31.0643V162.399C441.62 169.866 446.881 182.317 440.481 197.495L434.888 209.458H491.843C502.976 209.458 512 218.483 512 229.616V272.077C512 287.971 496.428 296.69 483.336 290.814L471.211 285.159C465.114 282.418 459.117 286.187 457.403 291.056ZM413.228 81.458V31.0643C413.228 25.5069 408.707 20.9856 403.15 20.9856H30.2362C24.6788 20.9856 20.1575 25.5069 20.1575 31.0643V81.458H413.228ZM438.395 284.333C445.128 265.284 466.192 260.204 479.718 266.887L491.843 272.541V229.616H434.888C419.145 229.616 410.709 213.177 416.635 200.921L422.229 188.948C424.9 182.508 421.359 176.985 416.333 175.13C403.02 170.216 386.731 170.509 373.838 175.129C368.797 176.935 365.273 182.506 367.947 188.952L373.543 200.919C379.465 213.181 371.028 229.617 355.284 229.617H298.331V272.538L310.455 266.891C323.982 260.21 345.051 265.282 351.773 284.331C358.132 302.348 358.234 322.213 351.773 340.193C346.611 354.561 329.509 366.005 310.455 357.633L298.332 351.987L298.331 394.907H355.284C370.995 394.907 379.514 411.325 373.543 423.603L367.947 435.571C365.078 441.822 368.983 447.922 373.838 449.394C388.552 453.851 400.191 454.437 416.333 449.394C421.178 447.879 425.091 441.824 422.229 435.576L416.635 423.602C410.658 411.326 419.175 394.908 434.888 394.908H491.843V351.982L479.718 357.637C460.659 366.002 443.565 354.563 438.395 340.19C431.934 322.209 432.045 302.344 438.395 284.333Z" fill="#182C2C"/>
</svg>
