<svg width="486" height="603" viewBox="0 0 486 603" fill="none" xmlns="http://www.w3.org/2000/svg">
<circle cx="315.5" cy="432.5" r="170.5" fill="#FAF7EE"/>
<path d="M176.342 295.987C174.677 297.652 172.463 298.57 170.108 298.57C167.753 298.57 165.539 297.653 163.874 295.987C159.969 292.082 153.637 292.082 149.731 295.987C145.826 299.892 145.826 306.224 149.731 310.13C155.174 315.573 162.411 318.57 170.108 318.57C177.805 318.57 185.042 315.572 190.484 310.129C194.389 306.224 194.389 299.892 190.484 295.987C186.579 292.082 180.248 292.082 176.342 295.987Z" fill="#182C2C"/>
<path d="M428.644 0H373.312C367.789 0 363.312 4.477 363.312 10C363.312 15.523 367.789 20 373.312 20H428.644C434.879 20 439.952 25.073 439.952 31.309V150.788C439.952 157.024 434.879 162.097 428.643 162.097H261.768C259.116 162.097 256.572 163.151 254.697 165.026L245.439 174.284V172.097C245.439 166.574 240.962 162.097 235.439 162.097H227.981C221.745 162.097 216.672 157.024 216.672 150.788V31.309C216.672 25.073 221.745 20 227.98 20H283.312C288.835 20 293.312 15.523 293.312 10C293.312 4.477 288.835 0 283.312 0H227.98C210.717 0 196.672 14.045 196.672 31.309V93.472C187.975 91.324 179.085 90.213 170.109 90.213C141.063 90.213 113.359 101.499 92.0999 121.992C70.5789 142.739 58.7258 170.061 58.7258 199.023C58.8858 215.138 53.8379 231.555 44.5119 245.252C37.7519 255.18 34.1789 266.796 34.1789 278.847C34.1789 285.818 35.3729 292.652 37.7269 299.158C40.4439 306.667 39.2159 314.757 34.4429 320.799C23.4549 334.707 17.8219 352.159 18.5819 369.94C19.2159 384.787 24.3829 399.072 33.2689 410.962C12.5499 435.599 0.0478516 467.365 0.0478516 502C0.0478516 507.523 4.52485 512 10.0479 512H330.168C335.691 512 340.168 507.523 340.168 502C340.168 467.39 327.684 435.645 306.993 411.014C316.519 398.262 321.705 382.806 321.705 366.702C321.705 349.884 316.209 334.027 305.81 320.844C301.017 314.767 299.776 306.659 302.491 299.155C304.845 292.649 306.038 285.816 306.038 278.847C306.038 266.798 302.465 255.181 295.705 245.252C286.379 231.556 281.331 215.138 281.491 198.924C281.491 193.326 281.021 187.647 280.133 182.096H428.643C445.907 182.096 459.952 168.051 459.952 150.787V31.309C459.952 14.045 445.907 0 428.644 0ZM20.4559 492C25.3579 432.001 73.9889 384.197 134.335 380.573C137.051 397.873 152.057 411.149 170.108 411.149C188.159 411.149 203.165 397.873 205.881 380.573C266.227 384.197 314.858 432.001 319.76 492H20.4559ZM170.108 341.986C133.419 341.986 103.569 312.137 103.569 275.447V249.59C128.974 247.246 152.391 236.005 170.108 217.689C187.825 236.004 211.241 247.246 236.647 249.59V275.447C236.647 312.137 206.798 341.986 170.108 341.986ZM170.108 361.986C175.649 361.986 181.068 361.456 186.322 360.456V374.935C186.322 383.875 179.048 391.149 170.107 391.149C161.167 391.149 153.893 383.875 153.893 374.935V360.456C159.148 361.456 164.567 361.986 170.108 361.986ZM286.038 278.847C286.038 283.49 285.246 288.033 283.684 292.351C278.601 306.404 281.002 321.686 290.107 333.23C297.694 342.849 301.705 354.424 301.705 366.703C301.705 377.366 298.589 387.637 292.825 396.403C269.575 375.615 239.448 362.372 206.323 360.562V354.033C236.003 340.301 256.647 310.241 256.647 275.447V240.049C256.647 234.526 252.17 230.049 246.647 230.049C219.601 230.049 194.588 217.752 178.022 196.312C176.128 193.861 173.206 192.426 170.109 192.426C167.012 192.426 164.089 193.861 162.196 196.312C145.629 217.752 120.616 230.049 93.5708 230.049C88.0478 230.049 83.5708 234.526 83.5708 240.049V275.447C83.5708 310.241 104.214 340.301 133.895 354.033V360.562C100.789 362.37 70.6779 375.6 47.4328 396.367C42.0798 388.247 38.9809 378.826 38.5639 369.086C38.0089 356.092 42.1189 343.346 50.1369 333.197C59.2309 321.685 61.6228 306.416 56.5338 292.353C54.9718 288.035 54.1799 283.491 54.1799 278.847C54.1799 270.828 56.5539 263.104 61.0438 256.509C72.6459 239.469 78.9248 218.984 78.7258 198.925C78.7258 150.839 120.574 110.214 170.109 110.214C179.117 110.214 188.027 111.567 196.672 114.205V150.788C196.672 167.196 209.36 180.697 225.439 181.995V198.427C225.439 202.471 227.876 206.118 231.612 207.666C232.849 208.179 234.148 208.428 235.437 208.428C238.039 208.428 240.597 207.411 242.51 205.498L260.702 187.305C261.222 191.134 261.49 195.014 261.491 198.826C261.291 218.985 267.571 239.471 279.173 256.509C283.664 263.104 286.038 270.829 286.038 278.847Z" fill="#182C2C"/>
<path d="M362.554 67.048H367.089V125.048C367.089 130.571 371.566 135.048 377.089 135.048C382.612 135.048 387.089 130.571 387.089 125.048V57.048C387.089 51.525 382.612 47.048 377.089 47.048H362.554C357.031 47.048 352.554 51.525 352.554 57.048C352.554 62.571 357.031 67.048 362.554 67.048Z" fill="#182C2C"/>
<path d="M291.094 81.847H281.427C275.904 81.847 271.427 86.324 271.427 91.847C271.427 97.37 275.904 101.847 281.427 101.847H291.094V111.514C291.094 117.037 295.571 121.514 301.094 121.514C306.617 121.514 311.094 117.037 311.094 111.514V101.847H320.761C326.284 101.847 330.761 97.37 330.761 91.847C330.761 86.324 326.284 81.847 320.761 81.847H311.094V72.18C311.094 66.657 306.617 62.18 301.094 62.18C295.571 62.18 291.094 66.657 291.094 72.18V81.847Z" fill="#182C2C"/>
<path d="M328.312 20C333.835 20 338.312 15.5228 338.312 10C338.312 4.47715 333.835 0 328.312 0C322.789 0 318.312 4.47715 318.312 10C318.312 15.5228 322.789 20 328.312 20Z" fill="#182C2C"/>
</svg>
