<svg xmlns="http://www.w3.org/2000/svg" xmlns:xlink="http://www.w3.org/1999/xlink" width="49" zoomAndPan="magnify" viewBox="0 0 36.75 37.5" height="50" preserveAspectRatio="xMidYMid meet" version="1.2"><defs><clipPath id="ff54a32e6e"><path d="M 15 15 L 36.386719 15 L 36.386719 37.007812 L 15 37.007812 Z M 15 15 "/></clipPath><clipPath id="cc94684e05"><path d="M 0.183594 12 L 4 12 L 4 14 L 0.183594 14 Z M 0.183594 12 "/></clipPath></defs><g id="f8704944bd"><g clip-rule="nonzero" clip-path="url(#ff54a32e6e)"><path style=" stroke:none;fill-rule:nonzero;fill:#d9d9d9;fill-opacity:1;" d="M 36.320312 26.4375 C 36.320312 27.132812 36.253906 27.820312 36.117188 28.5 C 35.984375 29.179688 35.78125 29.839844 35.515625 30.480469 C 35.25 31.125 34.925781 31.734375 34.539062 32.308594 C 34.15625 32.886719 33.71875 33.421875 33.226562 33.910156 C 32.734375 34.402344 32.203125 34.839844 31.625 35.226562 C 31.046875 35.609375 30.4375 35.9375 29.796875 36.203125 C 29.15625 36.46875 28.496094 36.667969 27.816406 36.804688 C 27.132812 36.9375 26.445312 37.007812 25.753906 37.007812 C 25.058594 37.007812 24.371094 36.9375 23.691406 36.804688 C 23.011719 36.667969 22.351562 36.46875 21.707031 36.203125 C 21.066406 35.9375 20.457031 35.609375 19.882812 35.226562 C 19.304688 34.839844 18.769531 34.402344 18.28125 33.910156 C 17.789062 33.421875 17.351562 32.886719 16.964844 32.308594 C 16.578125 31.734375 16.253906 31.125 15.988281 30.480469 C 15.722656 29.839844 15.523438 29.179688 15.386719 28.5 C 15.25 27.820312 15.183594 27.132812 15.183594 26.4375 C 15.183594 25.742188 15.25 25.054688 15.386719 24.375 C 15.523438 23.695312 15.722656 23.035156 15.988281 22.394531 C 16.253906 21.753906 16.578125 21.144531 16.964844 20.566406 C 17.351562 19.988281 17.789062 19.453125 18.28125 18.964844 C 18.769531 18.472656 19.304688 18.035156 19.882812 17.648438 C 20.457031 17.265625 21.066406 16.9375 21.707031 16.671875 C 22.351562 16.40625 23.011719 16.207031 23.691406 16.070312 C 24.371094 15.9375 25.058594 15.867188 25.753906 15.867188 C 26.445312 15.867188 27.132812 15.9375 27.816406 16.070312 C 28.496094 16.207031 29.15625 16.40625 29.796875 16.671875 C 30.4375 16.9375 31.046875 17.265625 31.625 17.648438 C 32.203125 18.035156 32.734375 18.472656 33.226562 18.964844 C 33.71875 19.453125 34.15625 19.988281 34.539062 20.566406 C 34.925781 21.144531 35.25 21.753906 35.515625 22.394531 C 35.78125 23.035156 35.984375 23.695312 36.117188 24.375 C 36.253906 25.054688 36.320312 25.742188 36.320312 26.4375 Z M 36.320312 26.4375 "/></g><path style=" stroke:none;fill-rule:nonzero;fill:#ffffff;fill-opacity:1;" d="M 18.089844 2.890625 C 17.761719 2.792969 17.417969 2.984375 17.324219 3.3125 C 17.230469 3.644531 17.421875 3.988281 17.75 4.082031 C 19.675781 4.632812 21.410156 5.816406 22.636719 7.417969 C 23.902344 9.070312 24.570312 11.046875 24.570312 13.132812 C 24.570312 16.800781 22.414062 20.164062 19.074219 21.691406 C 18.695312 21.867188 18.40625 22.175781 18.25 22.546875 L 12.066406 22.546875 C 11.914062 22.175781 11.625 21.871094 11.25 21.699219 C 7.902344 20.167969 5.742188 16.804688 5.746094 13.128906 C 5.746094 8.980469 8.554688 5.265625 12.570312 4.089844 C 12.898438 3.996094 13.085938 3.648438 12.992188 3.320312 C 12.894531 2.992188 12.550781 2.804688 12.222656 2.902344 C 7.679688 4.230469 4.507812 8.433594 4.503906 13.125 C 4.503906 17.273438 6.929688 21.070312 10.695312 22.808594 C 10.097656 23.148438 9.695312 23.792969 9.695312 24.527344 C 9.695312 25.0625 9.90625 25.546875 10.25 25.902344 C 9.90625 26.257812 9.695312 26.742188 9.695312 27.273438 C 9.695312 28.367188 10.585938 29.257812 11.679688 29.257812 L 12.121094 29.257812 C 12.40625 30.671875 13.660156 31.738281 15.15625 31.738281 C 16.652344 31.738281 17.90625 30.671875 18.195312 29.257812 L 18.632812 29.257812 C 19.726562 29.257812 20.617188 28.367188 20.617188 27.273438 C 20.617188 26.742188 20.40625 26.257812 20.0625 25.902344 C 20.40625 25.546875 20.617188 25.0625 20.617188 24.527344 C 20.617188 23.792969 20.214844 23.148438 19.617188 22.808594 C 23.378906 21.070312 25.808594 17.277344 25.808594 13.132812 C 25.808594 10.769531 25.054688 8.535156 23.621094 6.664062 C 22.234375 4.851562 20.269531 3.511719 18.089844 2.890625 Z M 15.15625 30.496094 C 14.347656 30.496094 13.660156 29.980469 13.402344 29.257812 L 16.910156 29.257812 C 16.652344 29.980469 15.964844 30.496094 15.15625 30.496094 Z M 18.632812 28.019531 L 11.679688 28.019531 C 11.269531 28.019531 10.9375 27.683594 10.9375 27.273438 C 10.9375 26.863281 11.269531 26.53125 11.679688 26.53125 L 18.632812 26.53125 C 19.042969 26.53125 19.378906 26.863281 19.378906 27.273438 C 19.378906 27.683594 19.042969 28.019531 18.632812 28.019531 Z M 18.632812 25.273438 L 11.679688 25.273438 C 11.269531 25.273438 10.9375 24.9375 10.9375 24.527344 C 10.9375 24.117188 11.269531 23.785156 11.679688 23.785156 L 18.632812 23.785156 C 19.042969 23.785156 19.378906 24.117188 19.378906 24.527344 C 19.378906 24.9375 19.042969 25.273438 18.632812 25.273438 Z M 18.632812 25.273438 "/><path style=" stroke:none;fill-rule:nonzero;fill:#ffffff;fill-opacity:1;" d="M 12.375 8.300781 L 12.375 9.230469 L 11.128906 9.230469 C 9.902344 9.230469 8.902344 10.230469 8.902344 11.457031 L 8.902344 16.875 C 8.902344 18.101562 9.902344 19.097656 11.128906 19.097656 L 19.203125 19.097656 C 20.429688 19.097656 21.425781 18.101562 21.425781 16.875 L 21.425781 11.457031 C 21.425781 10.230469 20.429688 9.230469 19.203125 9.230469 L 17.957031 9.230469 L 17.957031 8.300781 C 17.957031 7.449219 17.261719 6.753906 16.40625 6.753906 L 13.925781 6.753906 C 13.070312 6.753906 12.375 7.449219 12.375 8.300781 Z M 20.1875 16.875 C 20.1875 17.417969 19.746094 17.859375 19.203125 17.859375 L 11.128906 17.859375 C 10.585938 17.859375 10.144531 17.417969 10.144531 16.875 L 10.144531 14.300781 C 10.355469 14.378906 10.582031 14.425781 10.820312 14.425781 L 12.015625 14.425781 L 12.015625 14.941406 C 12.015625 15.28125 12.292969 15.558594 12.636719 15.558594 C 12.976562 15.558594 13.253906 15.28125 13.253906 14.941406 L 13.253906 14.425781 L 17.074219 14.425781 L 17.074219 14.941406 C 17.074219 15.28125 17.351562 15.558594 17.695312 15.558594 C 18.035156 15.558594 18.3125 15.28125 18.3125 14.941406 L 18.3125 14.425781 L 19.507812 14.425781 C 19.746094 14.425781 19.976562 14.378906 20.1875 14.300781 Z M 19.203125 10.472656 C 19.746094 10.472656 20.1875 10.914062 20.1875 11.457031 L 20.1875 12.507812 C 20.1875 12.882812 19.882812 13.183594 19.507812 13.183594 L 10.820312 13.183594 C 10.449219 13.183594 10.144531 12.882812 10.144531 12.507812 L 10.144531 11.457031 C 10.144531 10.914062 10.585938 10.472656 11.128906 10.472656 Z M 13.613281 8.300781 C 13.613281 8.132812 13.753906 7.992188 13.925781 7.992188 L 16.40625 7.992188 C 16.578125 7.992188 16.714844 8.132812 16.714844 8.300781 L 16.714844 9.230469 L 13.613281 9.230469 Z M 13.613281 8.300781 "/><path style=" stroke:none;fill-rule:nonzero;fill:#ffffff;fill-opacity:1;" d="M 8.40625 2.59375 C 8.519531 2.792969 8.726562 2.90625 8.941406 2.90625 C 9.046875 2.90625 9.152344 2.878906 9.25 2.820312 C 9.546875 2.652344 9.648438 2.273438 9.476562 1.976562 L 8.515625 0.308594 C 8.34375 0.0117188 7.964844 -0.0898438 7.671875 0.0820312 C 7.375 0.253906 7.273438 0.632812 7.441406 0.929688 Z M 8.40625 2.59375 "/><g clip-rule="nonzero" clip-path="url(#cc94684e05)"><path style=" stroke:none;fill-rule:nonzero;fill:#ffffff;fill-opacity:1;" d="M 2.726562 12.429688 L 0.804688 12.429688 C 0.460938 12.429688 0.183594 12.707031 0.183594 13.050781 C 0.183594 13.394531 0.460938 13.671875 0.804688 13.671875 L 2.726562 13.671875 C 3.070312 13.671875 3.347656 13.394531 3.347656 13.050781 C 3.347656 12.707031 3.070312 12.429688 2.726562 12.429688 Z M 2.726562 12.429688 "/></g><path style=" stroke:none;fill-rule:nonzero;fill:#ffffff;fill-opacity:1;" d="M 29.511719 12.429688 L 27.585938 12.429688 C 27.246094 12.429688 26.96875 12.707031 26.96875 13.050781 C 26.96875 13.394531 27.246094 13.671875 27.585938 13.671875 L 29.511719 13.671875 C 29.851562 13.671875 30.132812 13.394531 30.132812 13.050781 C 30.132812 12.707031 29.851562 12.429688 29.511719 12.429688 Z M 29.511719 12.429688 "/><path style=" stroke:none;fill-rule:nonzero;fill:#ffffff;fill-opacity:1;" d="M 21.0625 2.824219 C 21.160156 2.878906 21.265625 2.90625 21.371094 2.90625 C 21.585938 2.90625 21.792969 2.792969 21.910156 2.59375 L 22.871094 0.929688 C 23.042969 0.632812 22.941406 0.253906 22.644531 0.0820312 C 22.347656 -0.0898438 21.96875 0.015625 21.796875 0.308594 L 20.835938 1.976562 C 20.664062 2.273438 20.765625 2.652344 21.0625 2.824219 Z M 21.0625 2.824219 "/><path style=" stroke:none;fill-rule:nonzero;fill:#ffffff;fill-opacity:1;" d="M 15.15625 3.71875 C 15.5 3.71875 15.777344 3.441406 15.777344 3.097656 C 15.777344 2.757812 15.5 2.480469 15.15625 2.480469 C 14.816406 2.480469 14.539062 2.757812 14.539062 3.097656 C 14.539062 3.441406 14.816406 3.71875 15.15625 3.71875 Z M 15.15625 3.71875 "/></g></svg>