<svg xmlns="http://www.w3.org/2000/svg" xmlns:xlink="http://www.w3.org/1999/xlink" width="49" zoomAndPan="magnify" viewBox="0 0 36.75 37.5" height="50" preserveAspectRatio="xMidYMid meet" version="1.2"><defs><clipPath id="926030d062"><path d="M 12 15 L 33.714844 15 L 33.714844 37 L 12 37 Z M 12 15 "/></clipPath><clipPath id="a01d133363"><path d="M 2.628906 2 L 11 2 L 11 11 L 2.628906 11 Z M 2.628906 2 "/></clipPath></defs><g id="84d093d0a1"><g clip-rule="nonzero" clip-path="url(#926030d062)"><path style=" stroke:none;fill-rule:nonzero;fill:#d9d9d9;fill-opacity:1;" d="M 33.714844 26.308594 C 33.714844 27 33.648438 27.683594 33.515625 28.359375 C 33.378906 29.039062 33.179688 29.695312 32.914062 30.332031 C 32.652344 30.972656 32.328125 31.578125 31.945312 32.152344 C 31.558594 32.726562 31.125 33.257812 30.636719 33.746094 C 30.148438 34.234375 29.617188 34.667969 29.042969 35.050781 C 28.46875 35.4375 27.863281 35.761719 27.222656 36.023438 C 26.585938 36.289062 25.929688 36.488281 25.25 36.621094 C 24.574219 36.757812 23.890625 36.824219 23.199219 36.824219 C 22.511719 36.824219 21.824219 36.757812 21.148438 36.621094 C 20.472656 36.488281 19.8125 36.289062 19.175781 36.023438 C 18.539062 35.761719 17.933594 35.4375 17.359375 35.050781 C 16.785156 34.667969 16.253906 34.234375 15.765625 33.746094 C 15.277344 33.257812 14.839844 32.726562 14.457031 32.152344 C 14.074219 31.578125 13.75 30.972656 13.484375 30.332031 C 13.21875 29.695312 13.019531 29.039062 12.886719 28.359375 C 12.75 27.683594 12.683594 27 12.683594 26.308594 C 12.683594 25.617188 12.75 24.933594 12.886719 24.257812 C 13.019531 23.582031 13.21875 22.921875 13.484375 22.285156 C 13.75 21.648438 14.074219 21.039062 14.457031 20.464844 C 14.839844 19.890625 15.277344 19.359375 15.765625 18.871094 C 16.253906 18.382812 16.785156 17.949219 17.359375 17.566406 C 17.933594 17.179688 18.539062 16.859375 19.175781 16.59375 C 19.8125 16.328125 20.472656 16.128906 21.148438 15.996094 C 21.824219 15.859375 22.511719 15.792969 23.199219 15.792969 C 23.890625 15.792969 24.574219 15.859375 25.25 15.996094 C 25.929688 16.128906 26.585938 16.328125 27.222656 16.59375 C 27.863281 16.859375 28.46875 17.179688 29.042969 17.566406 C 29.617188 17.949219 30.148438 18.382812 30.636719 18.871094 C 31.125 19.359375 31.558594 19.890625 31.945312 20.464844 C 32.328125 21.039062 32.652344 21.648438 32.914062 22.285156 C 33.179688 22.921875 33.378906 23.582031 33.515625 24.257812 C 33.648438 24.933594 33.714844 25.617188 33.714844 26.308594 Z M 33.714844 26.308594 "/></g><path style=" stroke:none;fill-rule:nonzero;fill:#ffffff;fill-opacity:1;" d="M 22.0625 24.582031 L 17.921875 23.355469 C 17.632812 23.269531 17.429688 23 17.429688 22.699219 L 17.429688 22.691406 C 18.898438 21.875 19.898438 20.320312 19.933594 18.535156 L 20.625 15.914062 C 21.023438 14.367188 20.769531 12.769531 19.914062 11.421875 C 19.054688 10.070312 17.714844 9.164062 16.144531 8.871094 C 15.445312 8.738281 14.734375 8.738281 14.035156 8.871094 C 12.464844 9.164062 11.125 10.070312 10.265625 11.421875 C 9.410156 12.769531 9.15625 14.367188 9.554688 15.914062 L 10.230469 18.53125 C 10.261719 20.328125 11.269531 21.886719 12.75 22.699219 C 12.746094 23 12.546875 23.269531 12.257812 23.355469 L 8.117188 24.582031 C 7.144531 24.867188 6.308594 25.449219 5.703125 26.261719 C 5.097656 27.070312 4.777344 28.035156 4.777344 29.046875 L 4.777344 30.964844 C 4.777344 31.304688 5.054688 31.582031 5.394531 31.582031 L 6.808594 31.582031 C 7.152344 31.582031 7.425781 31.304688 7.425781 30.964844 C 7.425781 30.625 7.152344 30.347656 6.808594 30.347656 L 6.011719 30.347656 L 6.011719 29.046875 C 6.011719 27.542969 7.019531 26.191406 8.464844 25.765625 L 11.105469 24.984375 L 12.070312 27.496094 C 12.140625 27.675781 12.289062 27.8125 12.472656 27.867188 C 12.53125 27.882812 12.589844 27.890625 12.648438 27.890625 C 12.777344 27.890625 12.902344 27.851562 13.011719 27.773438 L 13.140625 27.679688 L 13.140625 30.347656 L 12.359375 30.347656 C 12.019531 30.347656 11.742188 30.625 11.742188 30.964844 C 11.742188 31.304688 12.019531 31.582031 12.359375 31.582031 L 24.785156 31.582031 C 25.125 31.582031 25.402344 31.304688 25.402344 30.964844 L 25.402344 29.046875 C 25.402344 28.035156 25.082031 27.070312 24.476562 26.261719 C 23.867188 25.449219 23.035156 24.867188 22.0625 24.582031 Z M 11.308594 12.082031 C 11.980469 11.023438 13.03125 10.3125 14.265625 10.082031 C 14.8125 9.980469 15.367188 9.980469 15.914062 10.082031 C 17.148438 10.3125 18.199219 11.023438 18.871094 12.082031 C 19.542969 13.132812 19.742188 14.378906 19.4375 15.582031 C 19.082031 14.90625 18.617188 14.285156 18.066406 13.75 C 17.949219 13.640625 17.796875 13.578125 17.636719 13.578125 C 17.632812 13.578125 17.628906 13.578125 17.621094 13.578125 C 17.457031 13.582031 17.300781 13.652344 17.1875 13.769531 C 16.59375 14.394531 15.882812 14.855469 15.117188 15.121094 C 15.332031 14.675781 15.503906 14.203125 15.628906 13.707031 C 15.707031 13.40625 15.546875 13.09375 15.257812 12.980469 C 14.96875 12.867188 14.640625 12.984375 14.492188 13.257812 C 13.738281 14.625 12.292969 15.496094 10.742188 15.578125 C 10.4375 14.371094 10.640625 13.132812 11.308594 12.082031 Z M 11.460938 18.445312 L 11.460938 16.742188 C 12.101562 16.644531 12.707031 16.4375 13.265625 16.140625 C 13.277344 16.191406 13.292969 16.238281 13.316406 16.28125 C 13.429688 16.496094 13.65625 16.621094 13.898438 16.609375 C 15.253906 16.53125 16.554688 15.988281 17.613281 15.070312 C 18.089844 15.636719 18.460938 16.285156 18.699219 16.984375 L 18.699219 18.445312 C 18.699219 20.441406 17.078125 22.066406 15.082031 22.066406 C 13.085938 22.066406 11.460938 20.441406 11.460938 18.445312 Z M 16.328125 23.386719 L 15.089844 24.628906 L 13.851562 23.386719 C 13.878906 23.3125 13.90625 23.238281 13.925781 23.160156 C 14.296875 23.25 14.683594 23.296875 15.082031 23.296875 C 15.484375 23.296875 15.878906 23.25 16.253906 23.15625 C 16.273438 23.234375 16.300781 23.3125 16.328125 23.386719 Z M 12.933594 26.300781 L 12.292969 24.632812 L 12.605469 24.539062 C 12.765625 24.492188 12.917969 24.421875 13.054688 24.339844 L 14.140625 25.421875 Z M 15.804688 30.347656 L 14.375 30.347656 L 14.375 26.78125 L 15.089844 26.261719 L 15.804688 26.78125 Z M 17.125 24.339844 C 17.261719 24.421875 17.410156 24.492188 17.574219 24.539062 L 17.886719 24.632812 L 17.242188 26.300781 L 16.039062 25.421875 Z M 17.039062 30.347656 L 17.039062 27.679688 L 17.167969 27.773438 C 17.277344 27.851562 17.402344 27.890625 17.53125 27.890625 C 17.589844 27.890625 17.648438 27.882812 17.707031 27.867188 C 17.890625 27.8125 18.039062 27.675781 18.105469 27.496094 L 19.074219 24.984375 L 21.714844 25.765625 C 23.160156 26.191406 24.167969 27.542969 24.167969 29.046875 L 24.167969 30.347656 Z M 17.039062 30.347656 "/><path style=" stroke:none;fill-rule:nonzero;fill:#ffffff;fill-opacity:1;" d="M 9.585938 31.582031 C 9.925781 31.582031 10.203125 31.304688 10.203125 30.964844 C 10.203125 30.625 9.925781 30.347656 9.585938 30.347656 C 9.246094 30.347656 8.96875 30.625 8.96875 30.964844 C 8.96875 31.304688 9.246094 31.582031 9.585938 31.582031 Z M 9.585938 31.582031 "/><path style=" stroke:none;fill-rule:nonzero;fill:#ffffff;fill-opacity:1;" d="M 12.742188 4.929688 L 12.398438 6.929688 C 12.359375 7.160156 12.453125 7.394531 12.644531 7.535156 C 12.75 7.613281 12.878906 7.652344 13.003906 7.652344 C 13.105469 7.652344 13.203125 7.628906 13.292969 7.582031 L 15.089844 6.636719 L 16.886719 7.582031 C 17.09375 7.691406 17.347656 7.671875 17.535156 7.535156 C 17.726562 7.394531 17.820312 7.160156 17.78125 6.929688 L 17.4375 4.929688 L 18.890625 3.511719 C 19.0625 3.347656 19.121094 3.101562 19.046875 2.878906 C 18.976562 2.65625 18.78125 2.492188 18.550781 2.460938 L 16.542969 2.167969 L 15.644531 0.347656 C 15.539062 0.136719 15.324219 0.00390625 15.089844 0.00390625 C 14.855469 0.00390625 14.640625 0.136719 14.535156 0.347656 L 13.636719 2.167969 L 11.628906 2.460938 C 11.394531 2.492188 11.203125 2.65625 11.128906 2.878906 C 11.058594 3.101562 11.117188 3.347656 11.285156 3.511719 Z M 14.136719 3.34375 C 14.335938 3.3125 14.511719 3.1875 14.601562 3.003906 L 15.089844 2.015625 L 15.578125 3.003906 C 15.667969 3.1875 15.84375 3.3125 16.042969 3.34375 L 17.136719 3.5 L 16.34375 4.273438 C 16.199219 4.414062 16.132812 4.617188 16.167969 4.816406 L 16.355469 5.90625 L 15.375 5.394531 C 15.195312 5.296875 14.980469 5.296875 14.800781 5.394531 L 13.824219 5.90625 L 14.011719 4.816406 C 14.046875 4.617188 13.980469 4.414062 13.835938 4.273438 L 13.042969 3.5 Z M 14.136719 3.34375 "/><path style=" stroke:none;fill-rule:nonzero;fill:#ffffff;fill-opacity:1;" d="M 27.519531 5.496094 C 27.445312 5.273438 27.253906 5.109375 27.019531 5.078125 L 25.011719 4.785156 L 24.113281 2.964844 C 24.007812 2.753906 23.792969 2.621094 23.558594 2.621094 C 23.324219 2.621094 23.109375 2.753906 23.007812 2.964844 L 22.109375 4.785156 L 20.097656 5.078125 C 19.867188 5.109375 19.671875 5.273438 19.601562 5.496094 C 19.527344 5.71875 19.589844 5.964844 19.757812 6.128906 L 21.210938 7.546875 L 20.867188 9.546875 C 20.828125 9.777344 20.921875 10.011719 21.113281 10.148438 C 21.21875 10.226562 21.347656 10.269531 21.476562 10.269531 C 21.574219 10.269531 21.671875 10.246094 21.761719 10.195312 L 23.558594 9.253906 L 25.355469 10.195312 C 25.5625 10.304688 25.816406 10.289062 26.007812 10.148438 C 26.195312 10.011719 26.292969 9.777344 26.25 9.546875 L 25.910156 7.546875 L 27.363281 6.128906 C 27.53125 5.964844 27.589844 5.71875 27.519531 5.496094 Z M 24.816406 6.890625 C 24.667969 7.03125 24.601562 7.234375 24.636719 7.433594 L 24.824219 8.523438 L 23.847656 8.007812 C 23.757812 7.960938 23.65625 7.9375 23.558594 7.9375 C 23.460938 7.9375 23.363281 7.960938 23.273438 8.007812 L 22.292969 8.523438 L 22.480469 7.433594 C 22.515625 7.234375 22.449219 7.03125 22.304688 6.886719 L 21.511719 6.117188 L 22.605469 5.957031 C 22.808594 5.929688 22.980469 5.804688 23.070312 5.621094 L 23.558594 4.628906 L 24.046875 5.621094 C 24.136719 5.804688 24.3125 5.929688 24.511719 5.957031 L 25.605469 6.117188 Z M 24.816406 6.890625 "/><g clip-rule="nonzero" clip-path="url(#a01d133363)"><path style=" stroke:none;fill-rule:nonzero;fill:#ffffff;fill-opacity:1;" d="M 6.621094 9.253906 L 8.417969 10.195312 C 8.625 10.304688 8.875 10.289062 9.066406 10.148438 C 9.257812 10.011719 9.351562 9.777344 9.3125 9.546875 L 8.96875 7.546875 L 10.421875 6.128906 C 10.589844 5.964844 10.652344 5.71875 10.578125 5.496094 C 10.507812 5.273438 10.3125 5.109375 10.082031 5.078125 L 8.070312 4.785156 L 7.171875 2.964844 C 7.070312 2.753906 6.855469 2.621094 6.621094 2.621094 C 6.386719 2.621094 6.171875 2.753906 6.066406 2.964844 L 5.167969 4.785156 L 3.160156 5.078125 C 2.925781 5.109375 2.734375 5.273438 2.660156 5.496094 C 2.589844 5.71875 2.648438 5.964844 2.816406 6.128906 L 4.269531 7.546875 L 3.929688 9.546875 C 3.886719 9.777344 3.984375 10.011719 4.171875 10.148438 C 4.28125 10.226562 4.40625 10.269531 4.535156 10.269531 C 4.632812 10.269531 4.734375 10.246094 4.824219 10.195312 Z M 5.667969 5.957031 C 5.867188 5.929688 6.042969 5.804688 6.128906 5.621094 L 6.621094 4.628906 L 7.109375 5.621094 C 7.199219 5.804688 7.371094 5.929688 7.574219 5.957031 L 8.667969 6.117188 L 7.875 6.890625 C 7.730469 7.03125 7.664062 7.234375 7.699219 7.433594 L 7.886719 8.523438 L 6.90625 8.007812 C 6.726562 7.914062 6.511719 7.914062 6.332031 8.007812 L 5.355469 8.523438 L 5.542969 7.433594 C 5.574219 7.234375 5.507812 7.03125 5.363281 6.890625 L 4.574219 6.117188 Z M 5.667969 5.957031 "/></g></g></svg>