<svg xmlns="http://www.w3.org/2000/svg" xmlns:xlink="http://www.w3.org/1999/xlink" width="49" zoomAndPan="magnify" viewBox="0 0 36.75 37.5" height="50" preserveAspectRatio="xMidYMid meet" version="1.2"><defs><clipPath id="4e414cfdae"><path d="M 15 14 L 36.386719 14 L 36.386719 34.710938 L 15 34.710938 Z M 15 14 "/></clipPath><clipPath id="b1d1e0abe4"><path d="M 0.117188 3.625 L 32 3.625 L 32 25 L 0.117188 25 Z M 0.117188 3.625 "/></clipPath></defs><g id="9e33fe5ad9"><g clip-rule="nonzero" clip-path="url(#4e414cfdae)"><path style=" stroke:none;fill-rule:nonzero;fill:#d9d9d9;fill-opacity:1;" d="M 36.003906 24.359375 C 36.003906 25.039062 35.9375 25.714844 35.808594 26.378906 C 35.675781 27.046875 35.476562 27.695312 35.21875 28.320312 C 34.957031 28.949219 34.640625 29.546875 34.261719 30.113281 C 33.882812 30.675781 33.453125 31.199219 32.972656 31.679688 C 32.492188 32.160156 31.96875 32.589844 31.40625 32.96875 C 30.839844 33.34375 30.242188 33.664062 29.617188 33.925781 C 28.988281 34.183594 28.339844 34.378906 27.671875 34.511719 C 27.007812 34.644531 26.332031 34.710938 25.652344 34.710938 C 24.972656 34.710938 24.300781 34.644531 23.632812 34.511719 C 22.96875 34.378906 22.320312 34.183594 21.691406 33.925781 C 21.066406 33.664062 20.46875 33.34375 19.902344 32.96875 C 19.335938 32.589844 18.816406 32.160156 18.335938 31.679688 C 17.855469 31.199219 17.425781 30.675781 17.046875 30.113281 C 16.667969 29.546875 16.351562 28.949219 16.089844 28.320312 C 15.832031 27.695312 15.632812 27.046875 15.5 26.378906 C 15.367188 25.714844 15.300781 25.039062 15.300781 24.359375 C 15.300781 23.679688 15.367188 23.007812 15.5 22.339844 C 15.632812 21.675781 15.832031 21.027344 16.089844 20.398438 C 16.351562 19.769531 16.667969 19.175781 17.046875 18.609375 C 17.425781 18.042969 17.855469 17.519531 18.335938 17.039062 C 18.816406 16.558594 19.335938 16.132812 19.902344 15.753906 C 20.46875 15.375 21.066406 15.058594 21.691406 14.796875 C 22.320312 14.535156 22.96875 14.339844 23.632812 14.207031 C 24.300781 14.074219 24.972656 14.007812 25.652344 14.007812 C 26.332031 14.007812 27.007812 14.074219 27.671875 14.207031 C 28.339844 14.339844 28.988281 14.535156 29.617188 14.796875 C 30.242188 15.058594 30.839844 15.375 31.40625 15.753906 C 31.96875 16.132812 32.492188 16.558594 32.972656 17.039062 C 33.453125 17.519531 33.882812 18.042969 34.261719 18.609375 C 34.640625 19.175781 34.957031 19.769531 35.21875 20.398438 C 35.476562 21.027344 35.675781 21.675781 35.808594 22.339844 C 35.9375 23.007812 36.003906 23.679688 36.003906 24.359375 Z M 36.003906 24.359375 "/></g><g clip-rule="nonzero" clip-path="url(#b1d1e0abe4)"><path style=" stroke:none;fill-rule:nonzero;fill:#ffffff;fill-opacity:1;" d="M 31.128906 13.414062 L 29.746094 11.019531 C 29.578125 10.730469 29.207031 10.628906 28.917969 10.796875 C 28.628906 10.964844 28.527344 11.335938 28.695312 11.628906 L 29.773438 13.492188 L 28.234375 14.382812 L 23.367188 5.953125 L 24.90625 5.0625 L 25.964844 6.894531 C 26.132812 7.1875 26.503906 7.285156 26.792969 7.117188 C 27.082031 6.949219 27.183594 6.578125 27.015625 6.289062 L 25.652344 3.929688 C 25.484375 3.640625 25.113281 3.539062 24.824219 3.707031 L 22.234375 5.203125 C 21.941406 5.371094 21.84375 5.742188 22.011719 6.035156 L 22.160156 6.292969 C 21.890625 6.417969 21.578125 6.4375 21.28125 6.34375 L 20.65625 6.140625 C 18.945312 5.59375 17.066406 5.855469 15.570312 6.8125 C 14.105469 5.96875 12.367188 5.78125 10.746094 6.300781 L 10.25 6.460938 C 9.871094 6.582031 9.46875 6.546875 9.125 6.375 L 9.324219 6.035156 C 9.492188 5.742188 9.390625 5.371094 9.101562 5.203125 L 6.507812 3.707031 C 6.21875 3.539062 5.847656 3.640625 5.679688 3.929688 L 0.207031 13.414062 C 0.0390625 13.703125 0.136719 14.074219 0.425781 14.242188 L 3.019531 15.738281 C 3.113281 15.792969 3.21875 15.820312 3.324219 15.820312 C 3.375 15.820312 3.429688 15.8125 3.480469 15.796875 C 3.636719 15.757812 3.769531 15.65625 3.847656 15.515625 L 4.101562 15.078125 L 7.21875 17.335938 C 7.300781 17.65625 7.46875 17.957031 7.714844 18.207031 C 8.070312 18.5625 8.53125 18.746094 8.992188 18.761719 C 9.011719 19.246094 9.207031 19.699219 9.550781 20.042969 C 9.894531 20.382812 10.34375 20.582031 10.828125 20.597656 C 10.84375 21.078125 11.039062 21.53125 11.382812 21.875 C 11.738281 22.226562 12.195312 22.414062 12.660156 22.429688 C 12.675781 22.894531 12.863281 23.355469 13.214844 23.707031 C 13.585938 24.078125 14.074219 24.265625 14.5625 24.265625 C 15.050781 24.265625 15.535156 24.078125 15.90625 23.707031 L 16.105469 23.507812 L 16.429688 23.832031 C 16.789062 24.191406 17.265625 24.386719 17.773438 24.386719 C 18.28125 24.386719 18.761719 24.191406 19.121094 23.832031 C 19.464844 23.488281 19.660156 23.035156 19.675781 22.554688 C 20.140625 22.535156 20.597656 22.351562 20.953125 21.996094 C 21.296875 21.65625 21.492188 21.203125 21.507812 20.71875 C 21.972656 20.703125 22.433594 20.519531 22.785156 20.164062 C 23.128906 19.820312 23.324219 19.371094 23.34375 18.886719 C 23.824219 18.871094 24.277344 18.675781 24.621094 18.332031 C 24.980469 17.972656 25.175781 17.496094 25.175781 16.984375 C 25.175781 16.957031 25.175781 16.925781 25.175781 16.894531 L 27.476562 15.5 L 27.484375 15.515625 C 27.566406 15.65625 27.699219 15.757812 27.851562 15.796875 C 27.90625 15.8125 27.957031 15.820312 28.011719 15.820312 C 28.117188 15.820312 28.222656 15.792969 28.3125 15.738281 L 30.90625 14.242188 C 31.195312 14.074219 31.296875 13.703125 31.128906 13.414062 Z M 1.558594 13.492188 L 6.425781 5.0625 L 7.96875 5.953125 L 3.101562 14.382812 Z M 8.574219 17.351562 C 8.308594 17.082031 8.308594 16.644531 8.574219 16.375 L 10.113281 14.835938 C 10.382812 14.566406 10.820312 14.566406 11.089844 14.835938 C 11.21875 14.964844 11.292969 15.140625 11.292969 15.324219 C 11.292969 15.507812 11.21875 15.679688 11.089844 15.808594 L 9.550781 17.347656 C 9.28125 17.617188 8.84375 17.617188 8.574219 17.351562 Z M 10.410156 19.183594 C 10.277344 19.050781 10.207031 18.878906 10.207031 18.695312 C 10.207031 18.511719 10.277344 18.339844 10.410156 18.207031 L 11.949219 16.667969 C 12.082031 16.535156 12.257812 16.46875 12.433594 16.46875 C 12.613281 16.46875 12.789062 16.535156 12.921875 16.667969 C 13.050781 16.800781 13.125 16.972656 13.125 17.15625 C 13.125 17.339844 13.050781 17.511719 12.921875 17.644531 L 11.382812 19.183594 C 11.253906 19.3125 11.078125 19.382812 10.894531 19.382812 C 10.710938 19.382812 10.539062 19.3125 10.410156 19.183594 Z M 12.039062 20.527344 C 12.039062 20.34375 12.113281 20.171875 12.242188 20.042969 L 13.78125 18.5 C 13.910156 18.371094 14.085938 18.300781 14.269531 18.300781 C 14.453125 18.300781 14.625 18.371094 14.753906 18.5 C 14.886719 18.632812 14.957031 18.804688 14.957031 18.988281 C 14.957031 19.171875 14.886719 19.347656 14.753906 19.476562 L 13.214844 21.015625 C 12.949219 21.285156 12.511719 21.285156 12.242188 21.015625 C 12.113281 20.886719 12.039062 20.710938 12.039062 20.527344 Z M 14.074219 22.847656 C 13.804688 22.582031 13.804688 22.144531 14.074219 21.875 L 15.613281 20.335938 C 15.882812 20.066406 16.320312 20.066406 16.589844 20.335938 C 16.71875 20.464844 16.789062 20.636719 16.789062 20.820312 C 16.789062 21.007812 16.71875 21.179688 16.589844 21.308594 L 15.050781 22.847656 C 14.78125 23.117188 14.34375 23.117188 14.074219 22.847656 Z M 18.261719 22.972656 C 18.132812 23.101562 17.957031 23.175781 17.773438 23.175781 C 17.589844 23.175781 17.417969 23.101562 17.289062 22.972656 L 16.964844 22.648438 L 17.449219 22.167969 C 17.617188 21.996094 17.753906 21.796875 17.847656 21.582031 L 18.261719 21.996094 C 18.390625 22.128906 18.464844 22.300781 18.464844 22.484375 C 18.464844 22.667969 18.390625 22.84375 18.261719 22.972656 Z M 23.761719 17.472656 C 23.628906 17.601562 23.457031 17.675781 23.273438 17.675781 C 23.089844 17.675781 22.917969 17.601562 22.785156 17.472656 L 18.953125 13.640625 C 18.714844 13.402344 18.332031 13.402344 18.09375 13.640625 C 17.855469 13.875 17.855469 14.261719 18.09375 14.5 L 21.929688 18.332031 C 22.058594 18.460938 22.128906 18.636719 22.128906 18.820312 C 22.128906 19.003906 22.058594 19.175781 21.929688 19.304688 C 21.660156 19.574219 21.222656 19.574219 20.953125 19.304688 L 17.121094 15.472656 C 16.882812 15.234375 16.5 15.234375 16.261719 15.472656 C 16.023438 15.710938 16.023438 16.09375 16.261719 16.332031 L 20.09375 20.164062 C 20.226562 20.292969 20.296875 20.46875 20.296875 20.652344 C 20.296875 20.835938 20.226562 21.007812 20.09375 21.140625 C 19.824219 21.40625 19.390625 21.40625 19.121094 21.140625 C 19.121094 21.140625 17.398438 19.421875 17.367188 19.402344 C 17.027344 19.097656 16.601562 18.9375 16.171875 18.921875 C 16.152344 18.4375 15.957031 17.988281 15.613281 17.644531 C 15.269531 17.300781 14.820312 17.105469 14.335938 17.085938 C 14.320312 16.605469 14.125 16.152344 13.78125 15.808594 C 13.425781 15.457031 12.96875 15.273438 12.503906 15.253906 C 12.488281 14.773438 12.292969 14.320312 11.949219 13.976562 C 11.207031 13.234375 10 13.234375 9.257812 13.976562 L 7.71875 15.515625 C 7.582031 15.652344 7.472656 15.800781 7.386719 15.957031 L 4.710938 14.019531 L 8.519531 7.429688 C 9.15625 7.769531 9.910156 7.84375 10.621094 7.617188 L 11.117188 7.457031 C 12.25 7.097656 13.453125 7.164062 14.519531 7.636719 L 12.707031 9.195312 C 12.238281 9.597656 11.957031 10.179688 11.9375 10.796875 C 11.914062 11.410156 12.148438 12.011719 12.585938 12.449219 C 13.296875 13.160156 14.402344 13.304688 15.273438 12.796875 L 18.296875 11.03125 L 23.761719 16.5 C 23.890625 16.628906 23.960938 16.800781 23.960938 16.984375 C 23.960938 17.167969 23.890625 17.34375 23.761719 17.472656 Z M 24.722656 15.75 C 24.6875 15.710938 18.824219 9.84375 18.824219 9.84375 C 18.628906 9.648438 18.324219 9.609375 18.085938 9.75 L 14.660156 11.746094 C 14.265625 11.976562 13.765625 11.914062 13.441406 11.589844 C 13.242188 11.390625 13.136719 11.125 13.148438 10.839844 C 13.160156 10.558594 13.285156 10.300781 13.496094 10.117188 L 15.691406 8.230469 C 16.945312 7.148438 18.707031 6.792969 20.285156 7.296875 L 20.910156 7.5 C 21.539062 7.699219 22.203125 7.636719 22.769531 7.347656 L 26.867188 14.449219 Z M 24.722656 15.75 "/></g><path style=" stroke:none;fill-rule:nonzero;fill:#ffffff;fill-opacity:1;" d="M 27.855469 9.566406 C 28.191406 9.566406 28.460938 9.292969 28.460938 8.957031 C 28.460938 8.621094 28.191406 8.351562 27.855469 8.351562 C 27.519531 8.351562 27.25 8.621094 27.25 8.957031 C 27.25 9.292969 27.519531 9.566406 27.855469 9.566406 Z M 27.855469 9.566406 "/></g></svg>