<svg xmlns="http://www.w3.org/2000/svg" xmlns:xlink="http://www.w3.org/1999/xlink" width="49" zoomAndPan="magnify" viewBox="0 0 36.75 37.5" height="50" preserveAspectRatio="xMidYMid meet" version="1.2"><defs><clipPath id="f3cc6b0920"><path d="M 15 15 L 36.386719 15 L 36.386719 36.453125 L 15 36.453125 Z M 15 15 "/></clipPath><clipPath id="38cb3d963e"><path d="M 0.117188 0.1875 L 31 0.1875 L 31 32 L 0.117188 32 Z M 0.117188 0.1875 "/></clipPath></defs><g id="99cb3257be"><g clip-rule="nonzero" clip-path="url(#f3cc6b0920)"><path style=" stroke:none;fill-rule:nonzero;fill:#d9d9d9;fill-opacity:1;" d="M 36.023438 26.09375 C 36.023438 26.773438 35.957031 27.449219 35.824219 28.117188 C 35.695312 28.78125 35.496094 29.429688 35.238281 30.058594 C 34.976562 30.6875 34.65625 31.285156 34.28125 31.847656 C 33.902344 32.414062 33.472656 32.9375 32.992188 33.417969 C 32.511719 33.898438 31.988281 34.328125 31.421875 34.707031 C 30.855469 35.085938 30.257812 35.402344 29.632812 35.664062 C 29.003906 35.925781 28.355469 36.121094 27.6875 36.253906 C 27.019531 36.386719 26.347656 36.453125 25.667969 36.453125 C 24.988281 36.453125 24.3125 36.386719 23.648438 36.253906 C 22.980469 36.121094 22.332031 35.925781 21.703125 35.664062 C 21.074219 35.402344 20.480469 35.085938 19.914062 34.707031 C 19.347656 34.328125 18.824219 33.898438 18.34375 33.417969 C 17.863281 32.9375 17.433594 32.414062 17.054688 31.847656 C 16.679688 31.285156 16.359375 30.6875 16.097656 30.058594 C 15.839844 29.429688 15.640625 28.78125 15.507812 28.117188 C 15.375 27.449219 15.308594 26.773438 15.308594 26.09375 C 15.308594 25.414062 15.375 24.742188 15.507812 24.074219 C 15.640625 23.40625 15.839844 22.757812 16.097656 22.132812 C 16.359375 21.503906 16.679688 20.90625 17.054688 20.339844 C 17.433594 19.773438 17.863281 19.25 18.34375 18.769531 C 18.824219 18.289062 19.347656 17.859375 19.914062 17.484375 C 20.480469 17.105469 21.074219 16.785156 21.703125 16.527344 C 22.332031 16.265625 22.980469 16.070312 23.648438 15.9375 C 24.3125 15.804688 24.988281 15.738281 25.667969 15.738281 C 26.347656 15.738281 27.019531 15.804688 27.6875 15.9375 C 28.355469 16.070312 29.003906 16.265625 29.632812 16.527344 C 30.257812 16.785156 30.855469 17.105469 31.421875 17.484375 C 31.988281 17.859375 32.511719 18.289062 32.992188 18.769531 C 33.472656 19.25 33.902344 19.773438 34.28125 20.339844 C 34.65625 20.90625 34.976562 21.503906 35.238281 22.132812 C 35.496094 22.757812 35.695312 23.40625 35.824219 24.074219 C 35.957031 24.742188 36.023438 25.414062 36.023438 26.09375 Z M 36.023438 26.09375 "/></g><g clip-rule="nonzero" clip-path="url(#38cb3d963e)"><path style=" stroke:none;fill-rule:nonzero;fill:#ffffff;fill-opacity:1;" d="M 30.332031 15.738281 C 30.332031 12.996094 29.5 10.382812 27.921875 8.164062 C 28.308594 7.414062 28.527344 6.5625 28.527344 5.664062 C 28.527344 2.644531 26.070312 0.1875 23.050781 0.1875 C 21.121094 0.1875 19.425781 1.1875 18.449219 2.691406 C 18.046875 2.65625 17.636719 2.636719 17.234375 2.636719 C 12.097656 2.636719 7.460938 5.621094 5.328125 10.265625 C 2.433594 10.410156 0.125 12.808594 0.125 15.738281 C 0.125 18.664062 2.433594 21.066406 5.328125 21.207031 C 6.316406 23.363281 7.871094 25.207031 9.839844 26.554688 C 9.945312 26.625 10.0625 26.660156 10.183594 26.660156 C 10.375 26.660156 10.566406 26.566406 10.683594 26.394531 C 10.875 26.117188 10.804688 25.742188 10.527344 25.550781 C 9.722656 25 8.996094 24.359375 8.359375 23.644531 L 10.578125 23.644531 C 11.8125 23.644531 12.929688 22.898438 13.425781 21.789062 C 14.886719 21.527344 15.976562 20.253906 15.976562 18.726562 C 15.976562 17.011719 14.582031 15.613281 12.863281 15.613281 L 11.078125 15.613281 C 11.019531 13 9.121094 10.832031 6.632812 10.359375 C 7.34375 8.953125 8.3125 7.730469 9.464844 6.738281 C 9.898438 7.867188 10.992188 8.667969 12.269531 8.667969 L 13.5 8.667969 C 13.167969 9.15625 12.976562 9.742188 12.976562 10.359375 C 12.976562 12.015625 14.324219 13.367188 15.980469 13.367188 L 22.179688 13.367188 C 23.714844 13.367188 24.984375 12.207031 25.164062 10.714844 C 25.949219 10.386719 26.640625 9.878906 27.191406 9.246094 C 28.039062 10.539062 28.617188 11.972656 28.90625 13.476562 L 28.398438 13.476562 C 27.046875 13.476562 25.855469 14.367188 25.441406 15.613281 L 23.765625 15.613281 C 22.046875 15.613281 20.652344 17.011719 20.652344 18.726562 C 20.652344 19.425781 20.882812 20.089844 21.292969 20.621094 C 19.132812 21.355469 17.570312 23.40625 17.570312 25.8125 C 17.570312 26.4375 17.679688 27.042969 17.875 27.605469 C 17.023438 27.648438 16.160156 27.605469 15.324219 27.472656 C 14.996094 27.417969 14.683594 27.640625 14.628906 27.972656 C 14.574219 28.304688 14.800781 28.617188 15.132812 28.671875 C 15.820312 28.78125 16.527344 28.835938 17.234375 28.835938 C 17.636719 28.835938 18.046875 28.820312 18.449219 28.78125 C 19.425781 30.289062 21.121094 31.289062 23.050781 31.289062 C 26.070312 31.289062 28.527344 28.832031 28.527344 25.8125 C 28.527344 24.910156 28.308594 24.0625 27.921875 23.3125 C 29.5 21.089844 30.332031 18.480469 30.332031 15.738281 Z M 3.085938 19.175781 C 3.433594 18.375 4.148438 17.789062 4.992188 17.59375 L 4.992188 18.050781 C 4.992188 18.386719 5.265625 18.660156 5.601562 18.660156 C 5.9375 18.660156 6.207031 18.386719 6.207031 18.050781 L 6.207031 17.59375 C 7.054688 17.789062 7.765625 18.375 8.113281 19.175781 C 7.410156 19.695312 6.539062 20 5.601562 20 C 4.660156 20 3.792969 19.695312 3.085938 19.175781 Z M 4.679688 15.390625 L 4.679688 15.007812 C 4.679688 14.5 5.09375 14.089844 5.601562 14.089844 C 6.109375 14.089844 6.519531 14.5 6.519531 15.007812 L 6.519531 15.390625 C 6.519531 15.898438 6.109375 16.3125 5.601562 16.3125 C 5.09375 16.3125 4.679688 15.898438 4.679688 15.390625 Z M 12.863281 16.828125 C 13.910156 16.828125 14.761719 17.679688 14.761719 18.726562 C 14.761719 19.742188 13.96875 20.574219 12.957031 20.625 C 12.695312 20.636719 12.472656 20.8125 12.402344 21.0625 C 12.167969 21.867188 11.417969 22.429688 10.578125 22.429688 L 7.410156 22.429688 C 7.125 22.007812 6.863281 21.570312 6.632812 21.117188 C 8.808594 20.699219 10.527344 18.996094 10.96875 16.828125 Z M 9.863281 15.738281 C 9.863281 16.691406 9.550781 17.570312 9.019531 18.28125 C 8.617188 17.585938 8.007812 17.03125 7.292969 16.691406 C 7.570312 16.332031 7.734375 15.878906 7.734375 15.390625 L 7.734375 15.007812 C 7.734375 13.832031 6.777344 12.875 5.601562 12.875 C 4.421875 12.875 3.464844 13.832031 3.464844 15.007812 L 3.464844 15.390625 C 3.464844 15.878906 3.632812 16.332031 3.910156 16.691406 C 3.191406 17.03125 2.585938 17.585938 2.179688 18.28125 C 1.652344 17.570312 1.339844 16.691406 1.339844 15.738281 C 1.339844 13.386719 3.25 11.476562 5.601562 11.476562 C 7.949219 11.476562 9.863281 13.386719 9.863281 15.738281 Z M 22.179688 12.152344 L 15.980469 12.152344 C 14.992188 12.152344 14.191406 11.347656 14.191406 10.359375 C 14.191406 9.574219 14.71875 8.867188 15.472656 8.644531 C 15.761719 8.558594 15.941406 8.273438 15.898438 7.972656 C 15.855469 7.675781 15.601562 7.453125 15.296875 7.453125 L 12.269531 7.453125 C 11.375 7.453125 10.632812 6.796875 10.5 5.9375 C 12.441406 4.605469 14.773438 3.851562 17.234375 3.851562 C 17.445312 3.851562 17.660156 3.859375 17.875 3.871094 C 17.679688 4.433594 17.570312 5.035156 17.570312 5.664062 C 17.570312 8.683594 20.027344 11.140625 23.050781 11.140625 C 23.308594 11.140625 23.5625 11.121094 23.816406 11.085938 C 23.535156 11.714844 22.90625 12.152344 22.179688 12.152344 Z M 23.050781 9.925781 C 22.109375 9.925781 21.242188 9.621094 20.535156 9.101562 C 20.882812 8.300781 21.597656 7.714844 22.441406 7.519531 L 22.441406 7.976562 C 22.441406 8.3125 22.714844 8.585938 23.050781 8.585938 C 23.386719 8.585938 23.65625 8.3125 23.65625 7.976562 L 23.65625 7.519531 C 24.503906 7.714844 25.214844 8.300781 25.5625 9.101562 C 24.859375 9.621094 23.988281 9.925781 23.050781 9.925781 Z M 22.128906 5.316406 L 22.128906 4.933594 C 22.128906 4.425781 22.542969 4.015625 23.050781 4.015625 C 23.554688 4.015625 23.96875 4.425781 23.96875 4.933594 L 23.96875 5.316406 C 23.96875 5.824219 23.554688 6.238281 23.050781 6.238281 C 22.542969 6.238281 22.128906 5.824219 22.128906 5.316406 Z M 26.46875 8.207031 C 26.0625 7.511719 25.457031 6.957031 24.738281 6.617188 C 25.019531 6.257812 25.183594 5.804688 25.183594 5.316406 L 25.183594 4.933594 C 25.183594 3.757812 24.226562 2.800781 23.050781 2.800781 C 21.871094 2.800781 20.914062 3.757812 20.914062 4.933594 L 20.914062 5.316406 C 20.914062 5.804688 21.082031 6.257812 21.359375 6.617188 C 20.640625 6.957031 20.035156 7.511719 19.628906 8.207031 C 19.101562 7.496094 18.785156 6.617188 18.785156 5.664062 C 18.785156 3.3125 20.699219 1.402344 23.050781 1.402344 C 25.398438 1.402344 27.3125 3.3125 27.3125 5.664062 C 27.3125 6.617188 26.996094 7.496094 26.46875 8.207031 Z M 23.765625 16.828125 L 25.917969 16.828125 C 26.21875 16.828125 26.476562 16.609375 26.519531 16.308594 C 26.65625 15.386719 27.464844 14.691406 28.398438 14.691406 L 29.074219 14.691406 C 29.101562 15.039062 29.117188 15.386719 29.117188 15.738281 C 29.117188 18.070312 28.453125 20.300781 27.191406 22.230469 C 26.183594 21.070312 24.703125 20.335938 23.050781 20.335938 C 22.953125 20.335938 22.859375 20.335938 22.765625 20.339844 C 22.207031 19.996094 21.867188 19.390625 21.867188 18.726562 C 21.867188 17.679688 22.71875 16.828125 23.765625 16.828125 Z M 23.050781 30.074219 C 22.109375 30.074219 21.242188 29.769531 20.535156 29.25 C 20.882812 28.449219 21.597656 27.863281 22.441406 27.667969 L 22.441406 28.125 C 22.441406 28.460938 22.714844 28.734375 23.050781 28.734375 C 23.386719 28.734375 23.65625 28.460938 23.65625 28.125 L 23.65625 27.667969 C 24.503906 27.863281 25.214844 28.449219 25.5625 29.25 C 24.859375 29.769531 23.988281 30.074219 23.050781 30.074219 Z M 22.128906 25.464844 L 22.128906 25.082031 C 22.128906 24.574219 22.542969 24.164062 23.050781 24.164062 C 23.554688 24.164062 23.96875 24.574219 23.96875 25.082031 L 23.96875 25.464844 C 23.96875 25.972656 23.554688 26.382812 23.050781 26.382812 C 22.542969 26.382812 22.128906 25.972656 22.128906 25.464844 Z M 26.46875 28.355469 C 26.0625 27.660156 25.457031 27.105469 24.738281 26.765625 C 25.019531 26.40625 25.183594 25.953125 25.183594 25.464844 L 25.183594 25.082031 C 25.183594 23.90625 24.226562 22.949219 23.050781 22.949219 C 21.871094 22.949219 20.914062 23.90625 20.914062 25.082031 L 20.914062 25.464844 C 20.914062 25.953125 21.082031 26.40625 21.359375 26.765625 C 20.640625 27.105469 20.035156 27.660156 19.628906 28.355469 C 19.101562 27.644531 18.785156 26.761719 18.785156 25.8125 C 18.785156 23.460938 20.699219 21.550781 23.050781 21.550781 C 25.398438 21.550781 27.3125 23.460938 27.3125 25.8125 C 27.3125 26.761719 26.996094 27.644531 26.46875 28.355469 Z M 26.46875 28.355469 "/></g><path style=" stroke:none;fill-rule:nonzero;fill:#ffffff;fill-opacity:1;" d="M 12.59375 27.949219 C 12.929688 27.949219 13.203125 27.675781 13.203125 27.339844 C 13.203125 27.003906 12.929688 26.734375 12.59375 26.734375 C 12.257812 26.734375 11.988281 27.003906 11.988281 27.339844 C 11.988281 27.675781 12.257812 27.949219 12.59375 27.949219 Z M 12.59375 27.949219 "/></g></svg>