<svg width="617" height="585" viewBox="0 0 617 585" fill="none" xmlns="http://www.w3.org/2000/svg">
<circle cx="446.5" cy="414.5" r="170.5" fill="#FAF7EE"/>
<path d="M198.46 40.07C195.105 32.024 183.325 32.013 179.99 40.07C178.359 44.009 179.468 48.687 182.7 51.468C185.937 54.253 190.701 54.657 194.367 52.471C198.58 49.96 200.311 44.59 198.46 40.07Z" fill="#182C2C"/>
<path d="M163.31 40.07C161.672 36.142 157.591 33.609 153.338 33.926C149.175 34.236 145.563 37.22 144.444 41.233C142.058 49.783 151.651 56.982 159.217 52.471C163.434 49.957 165.162 44.591 163.31 40.07Z" fill="#182C2C"/>
<path d="M348.121 135.686L321.198 107.829C317.36 103.857 311.028 103.751 307.058 107.588C303.086 111.426 302.979 117.757 306.817 121.728L327.023 142.636L306.817 163.544C302.979 167.515 303.087 173.846 307.058 177.684C310.976 181.47 317.412 181.361 321.198 177.443L348.121 149.586C351.867 145.708 351.867 139.562 348.121 135.686Z" fill="#182C2C"/>
<path d="M206.941 107.587C202.971 103.75 196.64 103.856 192.801 107.828L165.878 135.685C162.132 139.561 162.132 145.707 165.878 149.583L192.801 177.44C196.586 181.357 203.023 181.468 206.941 177.681C210.913 173.843 211.021 167.512 207.182 163.541L186.975 142.633L207.182 121.725C211.021 117.756 210.913 111.425 206.941 107.587Z" fill="#182C2C"/>
<path d="M239.11 181.041C242.582 181.041 245.957 179.23 247.802 176L279.946 119.738C282.686 114.942 281.019 108.834 276.224 106.094C271.427 103.353 265.321 105.019 262.58 109.816L230.436 166.078C227.696 170.874 229.363 176.982 234.158 179.722C235.724 180.616 237.428 181.041 239.11 181.041Z" fill="#182C2C"/>
<path d="M485.635 381.158H404.77V363.698C404.77 348.453 392.367 336.051 377.122 336.051H266V308.278H369.521C388.957 308.278 404.769 292.466 404.769 273.031V219.626C404.769 214.104 400.291 209.626 394.769 209.626C389.247 209.626 384.769 214.104 384.769 219.626V273.031C384.769 281.438 377.929 288.278 369.521 288.278H142.479C134.071 288.278 127.231 281.438 127.231 273.031V87.801H384.77V131.634C384.77 137.156 389.248 141.634 394.77 141.634C400.292 141.634 404.77 137.156 404.77 131.634V35.248C404.77 15.812 388.958 0 369.522 0H142.479C123.043 0 107.231 15.812 107.231 35.248V273.03C107.231 292.466 123.043 308.277 142.479 308.277H246V336.05H129.241C113.996 336.05 101.593 348.452 101.593 363.697V381.157H26.365C11.827 381.158 0 392.985 0 407.523V461.056C0 475.594 11.827 487.421 26.365 487.421H201.844C216.382 487.421 228.209 475.594 228.209 461.056V444.289H279.973V461.056C279.973 475.594 291.8 487.421 306.338 487.421H485.635C500.173 487.421 512 475.594 512 461.056V407.523C512 392.985 500.173 381.158 485.635 381.158ZM127.231 35.248C127.231 26.84 134.071 20 142.479 20H369.522C377.93 20 384.77 26.84 384.77 35.248V67.801H127.231V35.248ZM208.208 461.057C208.208 464.567 205.353 467.422 201.843 467.422H26.365C22.855 467.422 20 464.567 20 461.057V407.524C20 404.014 22.855 401.159 26.365 401.159H201.844C205.354 401.159 208.209 404.014 208.209 407.524V461.057H208.208ZM228.208 424.29V407.523C228.208 392.985 216.38 381.158 201.843 381.158H121.593V363.698C121.593 359.481 125.024 356.051 129.241 356.051H377.121C381.339 356.051 384.769 359.482 384.769 363.698V381.158H306.337C291.799 381.158 279.972 392.985 279.972 407.523V424.29H228.208ZM492 461.057C492 464.567 489.145 467.422 485.635 467.422H306.338C302.828 467.422 299.973 464.567 299.973 461.057V407.524C299.973 404.014 302.828 401.159 306.338 401.159H485.635C489.145 401.159 492 404.014 492 407.524V461.057Z" fill="#182C2C"/>
<path d="M173.069 243.948C167.546 243.948 163.069 248.426 163.069 253.948C163.069 259.47 167.546 263.948 173.069 263.948H255.191C260.714 263.948 265.191 259.47 265.191 253.948C265.191 248.426 260.713 243.948 255.191 243.948H173.069Z" fill="#182C2C"/>
<path d="M330.167 211.816C330.167 206.294 325.689 201.816 320.167 201.816H173.069C167.546 201.816 163.069 206.294 163.069 211.816C163.069 217.338 167.546 221.816 173.069 221.816H320.167C325.689 221.816 330.167 217.339 330.167 211.816Z" fill="#182C2C"/>
<path d="M454.556 424.29H337.417C331.895 424.29 327.417 428.768 327.417 434.29C327.417 439.812 331.895 444.29 337.417 444.29H454.556C460.078 444.29 464.556 439.812 464.556 434.29C464.556 428.768 460.078 424.29 454.556 424.29Z" fill="#182C2C"/>
<path d="M171.405 424.29H54.266C48.743 424.29 44.266 428.768 44.266 434.29C44.266 439.812 48.743 444.29 54.266 444.29H171.405C176.928 444.29 181.405 439.812 181.405 434.29C181.405 428.768 176.928 424.29 171.405 424.29Z" fill="#182C2C"/>
<path d="M403.08 170.081C400.093 165.516 393.723 164.32 389.22 167.32C384.683 170.343 383.443 176.64 386.45 181.18C389.466 185.732 395.795 186.94 400.319 183.94C404.861 180.929 406.09 174.604 403.08 170.081Z" fill="#182C2C"/>
</svg>
