<svg xmlns="http://www.w3.org/2000/svg" xmlns:xlink="http://www.w3.org/1999/xlink" width="49" zoomAndPan="magnify" viewBox="0 0 36.75 37.5" height="50" preserveAspectRatio="xMidYMid meet" version="1.2"><defs><clipPath id="2bf999475a"><path d="M 16 14 L 36.386719 14 L 36.386719 34.046875 L 16 34.046875 Z M 16 14 "/></clipPath><clipPath id="e501848d60"><path d="M 0.117188 0 L 30 0 L 30 29 L 0.117188 29 Z M 0.117188 0 "/></clipPath></defs><g id="d1a54a56be"><g clip-rule="nonzero" clip-path="url(#2bf999475a)"><path style=" stroke:none;fill-rule:nonzero;fill:#faf7ee;fill-opacity:1;" d="M 36.027344 24.125 C 36.027344 24.773438 35.964844 25.421875 35.839844 26.058594 C 35.710938 26.699219 35.523438 27.320312 35.273438 27.921875 C 35.023438 28.523438 34.71875 29.09375 34.355469 29.636719 C 33.996094 30.179688 33.582031 30.679688 33.121094 31.140625 C 32.660156 31.601562 32.160156 32.011719 31.617188 32.375 C 31.078125 32.734375 30.503906 33.042969 29.902344 33.289062 C 29.300781 33.539062 28.679688 33.726562 28.042969 33.855469 C 27.402344 33.984375 26.757812 34.046875 26.105469 34.046875 C 25.453125 34.046875 24.808594 33.984375 24.171875 33.855469 C 23.53125 33.726562 22.910156 33.539062 22.308594 33.289062 C 21.707031 33.042969 21.136719 32.734375 20.59375 32.375 C 20.050781 32.011719 19.550781 31.601562 19.089844 31.140625 C 18.628906 30.679688 18.21875 30.179688 17.855469 29.636719 C 17.492188 29.09375 17.1875 28.523438 16.9375 27.921875 C 16.6875 27.320312 16.5 26.699219 16.375 26.058594 C 16.246094 25.421875 16.183594 24.773438 16.183594 24.125 C 16.183594 23.472656 16.246094 22.828125 16.375 22.1875 C 16.5 21.546875 16.6875 20.929688 16.9375 20.324219 C 17.1875 19.722656 17.492188 19.152344 17.855469 18.609375 C 18.21875 18.070312 18.628906 17.566406 19.089844 17.105469 C 19.550781 16.644531 20.050781 16.234375 20.59375 15.871094 C 21.136719 15.511719 21.707031 15.203125 22.308594 14.957031 C 22.910156 14.707031 23.53125 14.519531 24.171875 14.390625 C 24.808594 14.265625 25.453125 14.199219 26.105469 14.199219 C 26.757812 14.199219 27.402344 14.265625 28.042969 14.390625 C 28.679688 14.519531 29.300781 14.707031 29.902344 14.957031 C 30.503906 15.203125 31.078125 15.511719 31.617188 15.871094 C 32.160156 16.234375 32.660156 16.644531 33.121094 17.105469 C 33.582031 17.566406 33.996094 18.070312 34.355469 18.609375 C 34.71875 19.152344 35.023438 19.722656 35.273438 20.324219 C 35.523438 20.929688 35.710938 21.546875 35.839844 22.1875 C 35.964844 22.828125 36.027344 23.472656 36.027344 24.125 Z M 36.027344 24.125 "/></g><path style=" stroke:none;fill-rule:nonzero;fill:#ffffff;fill-opacity:1;" d="M 11.671875 2.332031 C 11.476562 1.863281 10.789062 1.863281 10.59375 2.332031 C 10.5 2.5625 10.566406 2.832031 10.753906 2.996094 C 10.941406 3.15625 11.21875 3.179688 11.433594 3.054688 C 11.675781 2.90625 11.777344 2.59375 11.671875 2.332031 Z M 11.671875 2.332031 "/><path style=" stroke:none;fill-rule:nonzero;fill:#ffffff;fill-opacity:1;" d="M 9.625 2.332031 C 9.53125 2.101562 9.292969 1.957031 9.042969 1.972656 C 8.800781 1.992188 8.59375 2.167969 8.527344 2.398438 C 8.386719 2.898438 8.945312 3.316406 9.386719 3.054688 C 9.632812 2.90625 9.734375 2.59375 9.625 2.332031 Z M 9.625 2.332031 "/><path style=" stroke:none;fill-rule:nonzero;fill:#ffffff;fill-opacity:1;" d="M 20.378906 7.898438 L 18.8125 6.277344 C 18.589844 6.042969 18.222656 6.039062 17.992188 6.261719 C 17.757812 6.484375 17.753906 6.851562 17.976562 7.085938 L 19.152344 8.300781 L 17.976562 9.519531 C 17.753906 9.75 17.757812 10.117188 17.992188 10.339844 C 18.21875 10.5625 18.59375 10.554688 18.8125 10.328125 L 20.378906 8.707031 C 20.597656 8.480469 20.597656 8.121094 20.378906 7.898438 Z M 20.378906 7.898438 "/><path style=" stroke:none;fill-rule:nonzero;fill:#ffffff;fill-opacity:1;" d="M 12.164062 6.261719 C 11.933594 6.039062 11.566406 6.042969 11.339844 6.277344 L 9.773438 7.898438 C 9.554688 8.121094 9.554688 8.480469 9.773438 8.707031 L 11.339844 10.328125 C 11.5625 10.554688 11.9375 10.5625 12.164062 10.339844 C 12.394531 10.117188 12.402344 9.75 12.179688 9.519531 L 11.003906 8.300781 L 12.179688 7.085938 C 12.402344 6.851562 12.394531 6.484375 12.164062 6.261719 Z M 12.164062 6.261719 "/><path style=" stroke:none;fill-rule:nonzero;fill:#ffffff;fill-opacity:1;" d="M 14.035156 10.535156 C 14.238281 10.535156 14.433594 10.429688 14.542969 10.242188 L 16.414062 6.96875 C 16.574219 6.6875 16.476562 6.332031 16.195312 6.175781 C 15.917969 6.015625 15.5625 6.113281 15.402344 6.390625 L 13.53125 9.664062 C 13.371094 9.945312 13.46875 10.300781 13.75 10.460938 C 13.839844 10.511719 13.9375 10.535156 14.035156 10.535156 Z M 14.035156 10.535156 "/><g clip-rule="nonzero" clip-path="url(#e501848d60)"><path style=" stroke:none;fill-rule:nonzero;fill:#ffffff;fill-opacity:1;" d="M 28.382812 22.183594 L 23.675781 22.183594 L 23.675781 21.167969 C 23.675781 20.28125 22.957031 19.558594 22.070312 19.558594 L 15.601562 19.558594 L 15.601562 17.941406 L 21.625 17.941406 C 22.757812 17.941406 23.675781 17.019531 23.675781 15.890625 L 23.675781 12.78125 C 23.675781 12.460938 23.417969 12.199219 23.09375 12.199219 C 22.773438 12.199219 22.511719 12.460938 22.511719 12.78125 L 22.511719 15.890625 C 22.511719 16.378906 22.117188 16.777344 21.625 16.777344 L 8.414062 16.777344 C 7.921875 16.777344 7.523438 16.378906 7.523438 15.890625 L 7.523438 5.109375 L 22.511719 5.109375 L 22.511719 7.660156 C 22.511719 7.980469 22.773438 8.242188 23.09375 8.242188 C 23.417969 8.242188 23.675781 7.980469 23.675781 7.660156 L 23.675781 2.050781 C 23.675781 0.921875 22.757812 0 21.625 0 L 8.414062 0 C 7.28125 0 6.359375 0.921875 6.359375 2.050781 L 6.359375 15.890625 C 6.359375 17.019531 7.28125 17.941406 8.414062 17.941406 L 14.4375 17.941406 L 14.4375 19.558594 L 7.640625 19.558594 C 6.753906 19.558594 6.03125 20.28125 6.03125 21.167969 L 6.03125 22.183594 L 1.65625 22.183594 C 0.808594 22.183594 0.121094 22.871094 0.121094 23.71875 L 0.121094 26.832031 C 0.121094 27.679688 0.808594 28.367188 1.65625 28.367188 L 11.867188 28.367188 C 12.714844 28.367188 13.402344 27.679688 13.402344 26.832031 L 13.402344 25.855469 L 16.414062 25.855469 L 16.414062 26.832031 C 16.414062 27.679688 17.101562 28.367188 17.949219 28.367188 L 28.382812 28.367188 C 29.230469 28.367188 29.917969 27.679688 29.917969 26.832031 L 29.917969 23.71875 C 29.917969 22.871094 29.230469 22.183594 28.382812 22.183594 Z M 7.523438 2.050781 C 7.523438 1.5625 7.921875 1.164062 8.414062 1.164062 L 21.625 1.164062 C 22.117188 1.164062 22.511719 1.5625 22.511719 2.050781 L 22.511719 3.945312 L 7.523438 3.945312 Z M 12.238281 26.832031 C 12.238281 27.035156 12.070312 27.203125 11.867188 27.203125 L 1.65625 27.203125 C 1.449219 27.203125 1.285156 27.035156 1.285156 26.832031 L 1.285156 23.71875 C 1.285156 23.511719 1.449219 23.347656 1.65625 23.347656 L 11.867188 23.347656 C 12.070312 23.347656 12.238281 23.511719 12.238281 23.71875 Z M 13.402344 24.691406 L 13.402344 23.71875 C 13.402344 22.871094 12.714844 22.183594 11.867188 22.183594 L 7.195312 22.183594 L 7.195312 21.167969 C 7.195312 20.921875 7.398438 20.722656 7.640625 20.722656 L 22.070312 20.722656 C 22.3125 20.722656 22.511719 20.921875 22.511719 21.167969 L 22.511719 22.183594 L 17.949219 22.183594 C 17.101562 22.183594 16.414062 22.871094 16.414062 23.71875 L 16.414062 24.691406 Z M 28.753906 26.832031 C 28.753906 27.035156 28.589844 27.203125 28.382812 27.203125 L 17.949219 27.203125 C 17.746094 27.203125 17.578125 27.035156 17.578125 26.832031 L 17.578125 23.71875 C 17.578125 23.511719 17.746094 23.347656 17.949219 23.347656 L 28.382812 23.347656 C 28.589844 23.347656 28.753906 23.511719 28.753906 23.71875 Z M 28.753906 26.832031 "/></g><path style=" stroke:none;fill-rule:nonzero;fill:#ffffff;fill-opacity:1;" d="M 10.191406 14.199219 C 9.871094 14.199219 9.609375 14.457031 9.609375 14.78125 C 9.609375 15.101562 9.871094 15.363281 10.191406 15.363281 L 14.972656 15.363281 C 15.292969 15.363281 15.554688 15.101562 15.554688 14.78125 C 15.554688 14.457031 15.292969 14.199219 14.972656 14.199219 Z M 10.191406 14.199219 "/><path style=" stroke:none;fill-rule:nonzero;fill:#ffffff;fill-opacity:1;" d="M 19.335938 12.328125 C 19.335938 12.007812 19.074219 11.746094 18.753906 11.746094 L 10.191406 11.746094 C 9.871094 11.746094 9.609375 12.007812 9.609375 12.328125 C 9.609375 12.648438 9.871094 12.910156 10.191406 12.910156 L 18.753906 12.910156 C 19.074219 12.910156 19.335938 12.648438 19.335938 12.328125 Z M 19.335938 12.328125 "/><path style=" stroke:none;fill-rule:nonzero;fill:#ffffff;fill-opacity:1;" d="M 26.574219 24.691406 L 19.757812 24.691406 C 19.4375 24.691406 19.175781 24.953125 19.175781 25.273438 C 19.175781 25.597656 19.4375 25.855469 19.757812 25.855469 L 26.574219 25.855469 C 26.894531 25.855469 27.15625 25.597656 27.15625 25.273438 C 27.15625 24.953125 26.894531 24.691406 26.574219 24.691406 Z M 26.574219 24.691406 "/><path style=" stroke:none;fill-rule:nonzero;fill:#ffffff;fill-opacity:1;" d="M 10.097656 24.691406 L 3.277344 24.691406 C 2.957031 24.691406 2.695312 24.953125 2.695312 25.273438 C 2.695312 25.597656 2.957031 25.855469 3.277344 25.855469 L 10.097656 25.855469 C 10.417969 25.855469 10.679688 25.597656 10.679688 25.273438 C 10.679688 24.953125 10.417969 24.691406 10.097656 24.691406 Z M 10.097656 24.691406 "/><path style=" stroke:none;fill-rule:nonzero;fill:#ffffff;fill-opacity:1;" d="M 23.578125 9.898438 C 23.40625 9.632812 23.035156 9.5625 22.773438 9.738281 C 22.507812 9.914062 22.4375 10.28125 22.609375 10.542969 C 22.785156 10.808594 23.15625 10.878906 23.417969 10.703125 C 23.683594 10.53125 23.753906 10.160156 23.578125 9.898438 Z M 23.578125 9.898438 "/></g></svg>